<svg width="212" height="60" viewBox="0 0 212 60" fill="none" xmlns="http://www.w3.org/2000/svg">
<rect width="168.583" height="47.9615" transform="matrix(1.25 0 0 -1.25 0.984375 59.9834)" fill="#2E2E2E"/>
<path d="M16.6969 11.3122C16.2456 11.7734 15.9844 12.4916 15.9844 13.4216V46.5941C15.9844 47.5241 16.2456 48.2422 16.6969 48.7034L16.8082 48.8047L35.8474 30.2234V29.7847L16.8082 11.2034L16.6969 11.3122Z" fill="url(#paint0_linear_437_1354)"/>
<path d="M42.187 36.4209L35.8477 30.224V29.7853L42.1947 23.5884L42.3368 23.669L49.8534 27.8446C51.9985 29.0296 51.9985 30.9796 49.8534 32.1721L42.3368 36.3403L42.187 36.4209Z" fill="url(#paint1_linear_437_1354)"/>
<path d="M42.337 36.3396L35.8478 30.004L16.6973 48.7034C17.4097 49.4346 18.5716 49.5227 19.8929 48.7915L42.337 36.3396Z" fill="url(#paint2_linear_437_1354)"/>
<path d="M42.337 23.6683L19.8929 11.2164C18.5716 10.4927 17.4097 10.5808 16.6973 11.312L35.8478 30.0039L42.337 23.6683Z" fill="url(#paint3_linear_437_1354)"/>
<path d="M108.089 33.9959C104.481 33.9959 101.533 36.6772 101.533 40.3765C101.533 44.0459 104.481 46.7553 108.089 46.7553C111.705 46.7553 114.653 44.0459 114.653 40.3765C114.653 36.6772 111.705 33.9959 108.089 33.9959ZM108.089 44.2428C106.109 44.2428 104.406 42.6472 104.406 40.3765C104.406 38.0759 106.109 36.5084 108.089 36.5084C110.069 36.5084 111.78 38.0759 111.78 40.3765C111.78 42.6472 110.069 44.2428 108.089 44.2428ZM93.7839 33.9959C90.1677 33.9959 87.2276 36.6772 87.2276 40.3765C87.2276 44.0459 90.1677 46.7553 93.7839 46.7553C97.3982 46.7553 100.34 44.0459 100.34 40.3765C100.34 36.6772 97.3982 33.9959 93.7839 33.9959ZM93.7839 44.2428C91.802 44.2428 90.0928 42.6472 90.0928 40.3765C90.0928 38.0759 91.802 36.5084 93.7839 36.5084C95.7639 36.5084 97.4673 38.0759 97.4673 40.3765C97.4673 42.6472 95.7639 44.2428 93.7839 44.2428ZM76.7612 35.9515V38.6628H83.3924C83.1985 40.1778 82.68 41.2915 81.8849 42.0678C80.917 43.0053 79.4095 44.0459 76.7612 44.0459C72.6803 44.0459 69.4847 40.8303 69.4847 36.8459C69.4847 32.8615 72.6803 29.6459 76.7612 29.6459C78.9678 29.6459 80.5733 30.4878 81.7582 31.579L83.7151 29.6684C82.0578 28.1234 79.8531 26.9365 76.7612 26.9365C71.1651 26.9365 66.4619 31.3822 66.4619 36.8459C66.4619 42.3097 71.1651 46.7553 76.7612 46.7553C79.7859 46.7553 82.0577 45.7878 83.8437 43.9728C85.6739 42.1859 86.2443 39.6734 86.2443 37.6447C86.2443 37.0147 86.1905 36.4353 86.0945 35.9515H76.7612ZM146.369 38.0534C145.83 36.6265 144.165 33.9959 140.773 33.9959C137.412 33.9959 134.614 36.5815 134.614 40.3765C134.614 43.9503 137.383 46.7553 141.096 46.7553C144.097 46.7553 145.83 44.9684 146.542 43.9278L144.314 42.4784C143.571 43.5397 142.559 44.2428 141.096 44.2428C139.642 44.2428 138.599 43.5922 137.931 42.3097L146.671 38.779L146.369 38.0534ZM137.458 40.1778C137.383 37.7178 139.415 36.4578 140.871 36.4578C142.012 36.4578 142.98 37.0147 143.302 37.8115L137.458 40.1778ZM130.355 46.3672H133.228V27.6172H130.355V46.3672ZM125.65 35.4172H125.554C124.908 34.6709 123.677 33.9959 122.118 33.9959C118.846 33.9959 115.854 36.8009 115.854 40.3972C115.854 43.9728 118.846 46.7553 122.118 46.7553C123.677 46.7553 124.908 46.0747 125.554 45.3059H125.65V46.2209C125.65 48.6603 124.315 49.9709 122.162 49.9709C120.407 49.9709 119.318 48.7334 118.869 47.6928L116.37 48.7109C117.09 50.4021 118.997 52.4834 122.162 52.4834C125.531 52.4834 128.373 50.5484 128.373 45.8403V34.384H125.65V35.4172ZM122.364 44.2428C120.384 44.2428 118.726 42.6247 118.726 40.3972C118.726 38.149 120.384 36.5084 122.364 36.5084C124.315 36.5084 125.853 38.149 125.853 40.3972C125.853 42.6247 124.315 44.2428 122.364 44.2428ZM159.82 27.6172H152.949V46.3672H155.814V39.2628H159.82C163.002 39.2628 166.123 37.0147 166.123 33.439C166.123 29.8653 162.994 27.6172 159.82 27.6172ZM159.895 36.6547H155.814V30.2253H159.895C162.034 30.2253 163.256 31.9597 163.256 33.439C163.256 34.8903 162.034 36.6547 159.895 36.6547ZM177.607 33.9603C175.537 33.9603 173.384 34.8528 172.499 36.8309L175.041 37.8715C175.589 36.8309 176.595 36.4934 177.659 36.4934C179.145 36.4934 180.653 37.3653 180.676 38.9047V39.1015C180.157 38.809 179.047 38.3759 177.682 38.3759C174.943 38.3759 172.153 39.8478 172.153 42.5947C172.153 45.1072 174.396 46.7253 176.918 46.7253C178.846 46.7253 179.91 45.8759 180.578 44.8878H180.676V46.3371H183.443V39.1447C183.443 35.8203 180.901 33.9603 177.607 33.9603ZM177.261 44.2353C176.324 44.2353 175.018 43.7815 175.018 42.6472C175.018 41.1959 176.647 40.639 178.056 40.639C179.318 40.639 179.91 40.9109 180.676 41.269C180.451 43.0053 178.921 44.2353 177.261 44.2353ZM193.525 34.3709L190.232 42.499H190.134L186.729 34.3709H183.639L188.755 45.7297L185.836 52.0503H188.83L196.713 34.3709H193.525ZM167.698 46.3672H170.57V27.6172H167.698V46.3672Z" fill="white"/>
<path d="M75.7799 12.5994C75.7799 13.8519 75.3958 14.855 74.6391 15.6031C73.7692 16.49 72.6361 16.9362 71.2476 16.9362C69.9206 16.9362 68.7876 16.4825 67.8581 15.5881C66.9267 14.6806 66.4619 13.5669 66.4619 12.2337C66.4619 10.9006 66.9267 9.78688 67.8581 8.88688C68.7876 7.985 69.9206 7.53125 71.2476 7.53125C71.9083 7.53125 72.5382 7.66438 73.1393 7.91188C73.7384 8.16125 74.2262 8.49875 74.5796 8.915L73.7768 9.70625C73.1604 8.99563 72.3212 8.645 71.2476 8.645C70.2797 8.645 69.4405 8.975 68.728 9.64062C68.0232 10.3081 67.6699 11.1725 67.6699 12.2337C67.6699 13.295 68.0232 14.1669 68.728 14.8344C69.4405 15.4925 70.2797 15.83 71.2476 15.83C72.2751 15.83 73.1393 15.4925 73.821 14.8269C74.2704 14.3862 74.5258 13.7787 74.593 13.0025H71.2476V11.9187H75.7107C75.7645 12.1531 75.7799 12.38 75.7799 12.5994Z" fill="white" stroke="white" stroke-width="0.16" stroke-miterlimit="10"/>
<path d="M82.8606 8.84168H78.6683V11.6917H82.4477V12.7754H78.6683V15.6254H82.8606V16.7298H77.4814V7.7373H82.8606V8.84168Z" fill="white" stroke="white" stroke-width="0.16" stroke-miterlimit="10"/>
<path d="M87.8579 16.7298H86.6711V8.84168H84.0996V7.7373H90.4313V8.84168H87.8579V16.7298Z" fill="white" stroke="white" stroke-width="0.16" stroke-miterlimit="10"/>
<path d="M95.0127 16.7298V7.7373H96.1976V16.7298H95.0127Z" fill="white" stroke="white" stroke-width="0.16" stroke-miterlimit="10"/>
<path d="M101.451 16.7298H100.273V8.84168H97.6924V7.7373H104.032V8.84168H101.451V16.7298Z" fill="white" stroke="white" stroke-width="0.16" stroke-miterlimit="10"/>
<path d="M116.019 15.5731C115.111 16.4825 113.985 16.9362 112.643 16.9362C111.293 16.9362 110.167 16.4825 109.259 15.5731C108.353 14.6656 107.901 13.5519 107.901 12.2337C107.901 10.9156 108.353 9.80187 109.259 8.89437C110.167 7.985 111.293 7.53125 112.643 7.53125C113.978 7.53125 115.103 7.985 116.011 8.90187C116.925 9.81687 117.377 10.9231 117.377 12.2337C117.377 13.5519 116.925 14.6656 116.019 15.5731ZM110.137 14.8194C110.82 15.4925 111.652 15.83 112.643 15.83C113.626 15.83 114.465 15.4925 115.141 14.8194C115.823 14.1462 116.169 13.2819 116.169 12.2337C116.169 11.1856 115.823 10.3213 115.141 9.64813C114.465 8.975 113.626 8.6375 112.643 8.6375C111.652 8.6375 110.82 8.975 110.137 9.64813C109.455 10.3213 109.109 11.1856 109.109 12.2337C109.109 13.2819 109.455 14.1462 110.137 14.8194Z" fill="white" stroke="white" stroke-width="0.16" stroke-miterlimit="10"/>
<path d="M119.041 16.7298V7.7373H120.481L124.96 14.7311H125.012L124.96 13.0023V7.7373H126.145V16.7298H124.908L120.218 9.39105H120.166L120.218 11.1273V16.7298H119.041Z" fill="white" stroke="white" stroke-width="0.16" stroke-miterlimit="10"/>
<defs>
<linearGradient id="paint0_linear_437_1354" x1="34.157" y1="46.9395" x2="8.99058" y2="21.1633" gradientUnits="userSpaceOnUse">
<stop stop-color="#00A0FF"/>
<stop offset="0.0066" stop-color="#00A1FF"/>
<stop offset="0.2601" stop-color="#00BEFF"/>
<stop offset="0.5122" stop-color="#00D2FF"/>
<stop offset="0.7604" stop-color="#00DFFF"/>
<stop offset="1" stop-color="#00E3FF"/>
</linearGradient>
<linearGradient id="paint1_linear_437_1354" x1="52.6467" y1="30.0025" x2="15.4719" y2="30.0025" gradientUnits="userSpaceOnUse">
<stop stop-color="#FFE000"/>
<stop offset="0.4087" stop-color="#FFBD00"/>
<stop offset="0.7754" stop-color="#FFA500"/>
<stop offset="1" stop-color="#FF9C00"/>
</linearGradient>
<linearGradient id="paint2_linear_437_1354" x1="38.8084" y1="26.5598" x2="4.6807" y2="-8.39478" gradientUnits="userSpaceOnUse">
<stop stop-color="#FF3A44"/>
<stop offset="1" stop-color="#C31162"/>
</linearGradient>
<linearGradient id="paint3_linear_437_1354" x1="11.8767" y1="59.7396" x2="27.1162" y2="44.1309" gradientUnits="userSpaceOnUse">
<stop stop-color="#32A071"/>
<stop offset="0.0685" stop-color="#2DA771"/>
<stop offset="0.4762" stop-color="#15CF74"/>
<stop offset="0.8009" stop-color="#06E775"/>
<stop offset="1" stop-color="#00F076"/>
</linearGradient>
</defs>
</svg>
