<svg width="212" height="59" viewBox="0 0 212 59" fill="none" xmlns="http://www.w3.org/2000/svg">
<rect width="210.729" height="58.0316" transform="translate(0.984375)" fill="#2E2E2E"/>
<path d="M40.7012 30.2804C40.6548 25.2563 44.9204 22.8121 45.1155 22.6983C42.6997 19.2642 38.9553 18.795 37.6395 18.7576C34.4947 18.4349 31.4442 20.5923 29.8422 20.5923C28.2082 20.5923 25.7413 18.7887 23.0825 18.8417C19.6611 18.8932 16.4603 20.8246 14.7048 23.8237C11.082 29.939 13.7839 38.9256 17.2549 43.8686C18.9912 46.2895 21.0201 48.9925 23.6757 48.8974C26.2737 48.793 27.2442 47.2825 30.3794 47.2825C33.4859 47.2825 34.3972 48.8974 37.1055 48.8366C39.8938 48.793 41.6493 46.4049 43.3248 43.9622C45.3313 41.1875 46.1371 38.4549 46.1691 38.3146C46.1035 38.2927 40.754 36.3021 40.7012 30.2804Z" fill="white"/>
<path d="M35.5851 15.5059C36.9824 13.8021 37.9385 11.4841 37.6731 9.13184C35.6506 9.21913 33.1213 10.4958 31.6648 12.1622C30.3762 13.6306 29.2251 16.0374 29.5224 18.3008C31.7943 18.4661 34.127 17.1832 35.5851 15.5059Z" fill="white"/>
<path d="M66.7609 11.3827C66.7609 13.2174 66.1965 14.5986 65.0693 15.5261C64.0253 16.3819 62.5417 16.8105 60.6199 16.8105C59.667 16.8105 58.8516 16.77 58.1689 16.6889V6.66415C59.0595 6.52385 60.0188 6.45215 61.0548 6.45215C62.8854 6.45215 64.2652 6.8403 65.1956 7.61659C66.2381 8.49421 66.7609 9.74906 66.7609 11.3827ZM64.9942 11.4279C64.9942 10.2385 64.6712 9.32662 64.0253 8.69062C63.3794 8.05618 62.4361 7.73818 61.1939 7.73818C60.6663 7.73818 60.217 7.77247 59.8445 7.84418V15.4653C60.0507 15.4964 60.428 15.5105 60.9764 15.5105C62.2587 15.5105 63.2483 15.1629 63.9454 14.4676C64.6425 13.7724 64.9942 12.7591 64.9942 11.4279Z" fill="white"/>
<path d="M76.1277 12.9847C76.1277 14.1148 75.7968 15.0408 75.1349 15.7672C74.441 16.5139 73.5217 16.8864 72.3738 16.8864C71.2674 16.8864 70.3865 16.5294 69.7294 15.8124C69.0738 15.0969 68.7461 14.1943 68.7461 13.1063C68.7461 11.9683 69.0834 11.0346 69.7613 10.3097C70.4392 9.58489 71.3505 9.22168 72.4985 9.22168C73.6048 9.22168 74.4938 9.57865 75.1669 10.2941C75.8064 10.9894 76.1277 11.8873 76.1277 12.9847ZM74.3898 13.0377C74.3898 12.3596 74.2396 11.7781 73.9406 11.2934C73.5888 10.7072 73.0884 10.4142 72.4377 10.4142C71.7646 10.4142 71.253 10.7072 70.9013 11.2934C70.6007 11.7781 70.452 12.3689 70.452 13.0673C70.452 13.7454 70.6023 14.3268 70.9013 14.8116C71.2642 15.3977 71.7694 15.6908 72.4217 15.6908C73.0612 15.6908 73.5633 15.3931 73.9246 14.796C74.2348 14.3019 74.3898 13.7158 74.3898 13.0377Z" fill="white"/>
<path d="M88.6883 9.37207L86.3301 16.7204H84.7952L83.8184 13.5295C83.5706 12.7329 83.3691 11.941 83.2124 11.1554H83.1821C83.0366 11.9628 82.8351 12.7532 82.5761 13.5295L81.5385 16.7204H79.9861L77.7686 9.37207H79.4905L80.3426 12.8654C80.5488 13.6916 80.7183 14.4788 80.8542 15.2239H80.8846C81.0093 14.6097 81.2155 13.8272 81.5065 12.881L82.5761 9.37363H83.9415L84.9663 12.8062C85.2141 13.6432 85.4156 14.4492 85.5707 15.2255H85.617C85.7305 14.4694 85.9016 13.6635 86.1286 12.8062L87.0431 9.37363H88.6883V9.37207Z" fill="white"/>
<path d="M97.3747 16.7194H95.6992V12.5106C95.6992 11.2137 95.194 10.5652 94.1804 10.5652C93.6831 10.5652 93.2819 10.7429 92.9701 11.0999C92.6615 11.4568 92.5048 11.8777 92.5048 12.3594V16.7179H90.8293V11.4709C90.8293 10.8255 90.8085 10.1256 90.7686 9.368H92.241L92.3194 10.5169H92.3657C92.5608 10.1599 92.8518 9.86527 93.2339 9.62989C93.6879 9.35553 94.1964 9.2168 94.7527 9.2168C95.4562 9.2168 96.0414 9.43815 96.5066 9.88241C97.0854 10.4264 97.3747 11.2386 97.3747 12.3173V16.7194Z" fill="white"/>
<path d="M101.995 16.72H100.321V6H101.995V16.72Z" fill="white"/>
<path d="M111.859 12.9847C111.859 14.1148 111.528 15.0408 110.866 15.7672C110.172 16.5139 109.252 16.8864 108.105 16.8864C106.997 16.8864 106.116 16.5294 105.461 15.8124C104.805 15.0969 104.478 14.1943 104.478 13.1063C104.478 11.9683 104.815 11.0346 105.493 10.3097C106.171 9.58489 107.082 9.22168 108.228 9.22168C109.336 9.22168 110.224 9.57865 110.898 10.2941C111.538 10.9894 111.859 11.8873 111.859 12.9847ZM110.12 13.0377C110.12 12.3596 109.969 11.7781 109.67 11.2934C109.32 10.7072 108.818 10.4142 108.169 10.4142C107.494 10.4142 106.983 10.7072 106.633 11.2934C106.332 11.7781 106.183 12.3689 106.183 13.0673C106.183 13.7454 106.334 14.3268 106.633 14.8116C106.996 15.3977 107.501 15.6908 108.153 15.6908C108.793 15.6908 109.293 15.3931 109.654 14.796C109.966 14.3019 110.12 13.7158 110.12 13.0377Z" fill="white"/>
<path d="M119.969 16.7196H118.464L118.339 15.8732H118.293C117.778 16.5481 117.044 16.8864 116.092 16.8864C115.38 16.8864 114.804 16.6635 114.371 16.2208C113.978 15.8186 113.781 15.3182 113.781 14.7243C113.781 13.8264 114.165 13.1421 114.937 12.6682C115.708 12.1944 116.792 11.9621 118.188 11.973V11.8358C118.188 10.8678 117.666 10.3846 116.622 10.3846C115.879 10.3846 115.223 10.5669 114.657 10.9286L114.317 9.85612C115.017 9.43368 115.882 9.22168 116.902 9.22168C118.872 9.22168 119.86 10.2349 119.86 12.2614V14.9675C119.86 15.7017 119.897 16.2863 119.969 16.7196ZM118.229 14.1943V13.0611C116.381 13.0299 115.457 13.524 115.457 14.5419C115.457 14.9254 115.562 15.2122 115.778 15.404C115.994 15.5957 116.269 15.6908 116.597 15.6908C116.964 15.6908 117.308 15.577 117.622 15.351C117.937 15.1234 118.13 14.835 118.202 14.4811C118.219 14.4016 118.229 14.305 118.229 14.1943Z" fill="white"/>
<path d="M129.489 16.72H128.003L127.924 15.54H127.878C127.403 16.4379 126.594 16.8868 125.457 16.8868C124.549 16.8868 123.793 16.5392 123.193 15.844C122.594 15.1487 122.295 14.2462 122.295 13.1379C122.295 11.9485 122.619 10.9851 123.272 10.2494C123.903 9.56347 124.677 9.22053 125.598 9.22053C126.61 9.22053 127.318 9.55256 127.721 10.2182H127.753V6H129.43V14.7403C129.43 15.4558 129.45 16.1152 129.489 16.72ZM127.753 13.6211V12.3959C127.753 12.1839 127.737 12.0124 127.707 11.8814C127.612 11.4886 127.409 11.1581 127.101 10.8916C126.789 10.625 126.413 10.491 125.98 10.491C125.355 10.491 124.866 10.7326 124.506 11.2174C124.15 11.7022 123.969 12.321 123.969 13.0771C123.969 13.8035 124.14 14.3927 124.484 14.8463C124.847 15.3296 125.336 15.5712 125.948 15.5712C126.498 15.5712 126.938 15.3701 127.272 14.9664C127.595 14.5938 127.753 14.1449 127.753 13.6211Z" fill="white"/>
<path d="M143.819 12.9847C143.819 14.1148 143.488 15.0408 142.826 15.7672C142.132 16.5139 141.215 16.8864 140.065 16.8864C138.96 16.8864 138.079 16.5294 137.421 15.8124C136.765 15.0969 136.438 14.1943 136.438 13.1063C136.438 11.9683 136.775 11.0346 137.453 10.3097C138.131 9.58489 139.042 9.22168 140.191 9.22168C141.296 9.22168 142.187 9.57865 142.858 10.2941C143.498 10.9894 143.819 11.8873 143.819 12.9847ZM142.083 13.0377C142.083 12.3596 141.933 11.7781 141.634 11.2934C141.28 10.7072 140.781 10.4142 140.129 10.4142C139.458 10.4142 138.946 10.7072 138.593 11.2934C138.292 11.7781 138.143 12.3689 138.143 13.0673C138.143 13.7454 138.294 14.3268 138.593 14.8116C138.956 15.3977 139.461 15.6908 140.113 15.6908C140.753 15.6908 141.256 15.3931 141.618 14.796C141.926 14.3019 142.083 13.7158 142.083 13.0377Z" fill="white"/>
<path d="M152.828 16.7194H151.154V12.5106C151.154 11.2137 150.649 10.5652 149.634 10.5652C149.137 10.5652 148.735 10.7429 148.425 11.0999C148.115 11.4568 147.96 11.8777 147.96 12.3594V16.7179H146.283V11.4709C146.283 10.8255 146.264 10.1256 146.224 9.368H147.695L147.773 10.5169H147.819C148.016 10.1599 148.307 9.86527 148.687 9.62989C149.143 9.35553 149.65 9.2168 150.208 9.2168C150.91 9.2168 151.495 9.43815 151.96 9.88241C152.54 10.4264 152.828 11.2386 152.828 12.3173V16.7194Z" fill="white"/>
<path d="M164.105 10.5957H162.26V14.1654C162.26 15.0727 162.588 15.5263 163.237 15.5263C163.537 15.5263 163.787 15.5013 163.983 15.4499L164.026 16.6892C163.695 16.8108 163.261 16.8716 162.725 16.8716C162.063 16.8716 161.548 16.6751 161.176 16.2823C160.802 15.8895 160.616 15.2286 160.616 14.3011V10.5957H159.515V9.37205H160.616V8.02523L162.258 7.54199V9.37049H164.103V10.5957H164.105Z" fill="white"/>
<path d="M172.975 16.72H171.298V12.5424C171.298 11.2252 170.793 10.5658 169.781 10.5658C169.004 10.5658 168.473 10.9477 168.182 11.7115C168.132 11.8721 168.104 12.0685 168.104 12.2992V16.7185H166.43V6H168.104V10.4286H168.136C168.663 9.62271 169.419 9.22053 170.4 9.22053C171.093 9.22053 171.667 9.44188 172.123 9.88615C172.691 10.4395 172.975 11.2626 172.975 12.3506V16.72Z" fill="white"/>
<path d="M182.125 12.6982C182.125 12.9913 182.103 13.2376 182.063 13.4387H177.038C177.06 14.1651 177.3 14.7184 177.765 15.1019C178.191 15.4449 178.739 15.6163 179.411 15.6163C180.154 15.6163 180.832 15.501 181.443 15.2687L181.705 16.4035C180.99 16.7059 180.149 16.8572 179.176 16.8572C178.008 16.8572 177.089 16.522 176.424 15.8517C175.756 15.1814 175.425 14.282 175.425 13.1534C175.425 12.0451 175.733 11.1222 176.355 10.3865C177.004 9.60083 177.882 9.20801 178.99 9.20801C180.074 9.20801 180.897 9.60083 181.454 10.3865C181.903 11.01 182.125 11.7816 182.125 12.6982ZM180.527 12.2758C180.539 11.791 180.429 11.3732 180.202 11.0209C179.911 10.5673 179.468 10.3397 178.869 10.3397C178.322 10.3397 177.876 10.5611 177.535 11.0053C177.257 11.3592 177.092 11.7816 177.038 12.2758H180.527Z" fill="white"/>
<path d="M76.1314 45.9362H72.5005L70.5116 39.8428H63.5984L61.7039 45.9362H58.1689L65.0182 25.1914H69.2486L76.1314 45.9362ZM69.9121 37.2863L68.1134 31.8694C67.9232 31.316 67.5666 30.0128 67.0406 27.9614H66.9767C66.7673 28.8437 66.4299 30.1469 65.9663 31.8694L64.1996 37.2863H69.9121Z" fill="white"/>
<path d="M93.7452 38.2733C93.7452 40.8173 93.0401 42.8282 91.6299 44.3044C90.3669 45.6185 88.7985 46.2747 86.9263 46.2747C84.9054 46.2747 83.4537 45.567 82.5696 44.1516H82.5056V52.0315H79.097V35.9023C79.097 34.303 79.0538 32.6615 78.9707 30.978H81.9684L82.1587 33.349H82.2226C83.3594 31.5625 85.0845 30.6709 87.3995 30.6709C89.2094 30.6709 90.7202 31.3677 91.9289 32.7628C93.1408 34.1595 93.7452 35.9958 93.7452 38.2733ZM90.2726 38.3949C90.2726 36.9389 89.9368 35.7386 89.2621 34.794C88.5251 33.8088 87.5354 33.3162 86.2948 33.3162C85.4538 33.3162 84.6896 33.5906 84.0069 34.1315C83.3226 34.6771 82.875 35.3895 82.6655 36.2718C82.56 36.6833 82.5072 37.02 82.5072 37.285V39.7791C82.5072 40.8672 82.8494 41.7853 83.5337 42.5351C84.2179 43.2849 85.1069 43.659 86.2004 43.659C87.4843 43.659 88.4835 43.1758 89.1982 42.2124C89.9144 41.2475 90.2726 39.9755 90.2726 38.3949Z" fill="white"/>
<path d="M111.391 38.2733C111.391 40.8173 110.686 42.8282 109.274 44.3044C108.013 45.6185 106.444 46.2747 104.572 46.2747C102.551 46.2747 101.1 45.567 100.217 44.1516H100.153V52.0315H96.7445V35.9023C96.7445 34.303 96.7013 32.6615 96.6182 30.978H99.6159L99.8062 33.349H99.8701C101.005 31.5625 102.73 30.6709 105.047 30.6709C106.855 30.6709 108.366 31.3677 109.578 32.7628C110.785 34.1595 111.391 35.9958 111.391 38.2733ZM107.918 38.3949C107.918 36.9389 107.581 35.7386 106.906 34.794C106.169 33.8088 105.183 33.3162 103.941 33.3162C103.098 33.3162 102.335 33.5906 101.651 34.1315C100.967 34.6771 100.521 35.3895 100.311 36.2718C100.207 36.6833 100.153 37.02 100.153 37.285V39.7791C100.153 40.8672 100.495 41.7853 101.176 42.5351C101.861 43.2833 102.75 43.659 103.846 43.659C105.13 43.659 106.129 43.1758 106.844 42.2124C107.56 41.2475 107.918 39.9755 107.918 38.3949Z" fill="white"/>
<path d="M131.121 40.118C131.121 41.8826 130.492 43.3183 129.231 44.4266C127.845 45.6378 125.915 46.2426 123.435 46.2426C121.146 46.2426 119.31 45.8124 117.921 44.9503L118.711 42.1803C120.207 43.0626 121.849 43.5053 123.638 43.5053C124.922 43.5053 125.921 43.2216 126.639 42.6573C127.354 42.093 127.71 41.3354 127.71 40.3908C127.71 39.549 127.416 38.8398 126.826 38.2645C126.239 37.6893 125.259 37.1547 123.891 36.6605C120.166 35.3059 118.305 33.3215 118.305 30.712C118.305 29.0067 118.957 27.6084 120.263 26.5204C121.565 25.4307 123.301 24.8867 125.472 24.8867C127.408 24.8867 129.017 25.2156 130.3 25.8719L129.448 28.5811C128.249 27.9451 126.893 27.6271 125.376 27.6271C124.177 27.6271 123.24 27.9155 122.569 28.4892C122.001 29.002 121.716 29.6271 121.716 30.3675C121.716 31.1875 122.041 31.8656 122.693 32.3987C123.261 32.8913 124.292 33.4244 125.789 33.9996C127.619 34.7182 128.964 35.5584 129.829 36.5218C130.69 37.482 131.121 38.6839 131.121 40.118Z" fill="white"/>
<path d="M142.39 33.4713H138.633V40.7338C138.633 42.581 139.295 43.5039 140.622 43.5039C141.231 43.5039 141.736 43.4524 142.136 43.3495L142.23 45.8733C141.559 46.118 140.675 46.2411 139.58 46.2411C138.233 46.2411 137.181 45.8405 136.422 45.0409C135.666 44.2396 135.285 42.8959 135.285 41.0082V33.4681H133.047V30.974H135.285V28.2352L138.633 27.25V30.974H142.39V33.4713Z" fill="white"/>
<path d="M159.342 38.3335C159.342 40.6328 158.668 42.5205 157.322 43.9967C155.91 45.5166 154.036 46.2741 151.7 46.2741C149.449 46.2741 147.657 45.5462 146.32 44.0902C144.984 42.6343 144.315 40.7964 144.315 38.5813C144.315 36.2634 145.003 34.3647 146.383 32.8885C147.759 31.4108 149.617 30.6719 151.953 30.6719C154.204 30.6719 156.015 31.3998 157.382 32.8573C158.69 34.2712 159.342 36.0966 159.342 38.3335ZM155.806 38.4411C155.806 37.0615 155.504 35.8783 154.891 34.8916C154.177 33.6976 153.155 33.1021 151.831 33.1021C150.461 33.1021 149.42 33.6991 148.706 34.8916C148.093 35.8799 147.791 37.0818 147.791 38.5034C147.791 39.883 148.093 41.0661 148.706 42.0513C149.443 43.2453 150.472 43.8408 151.801 43.8408C153.102 43.8408 154.124 43.2329 154.861 42.0201C155.489 41.0147 155.806 39.819 155.806 38.4411Z" fill="white"/>
<path d="M170.422 33.9008C170.085 33.84 169.725 33.8088 169.348 33.8088C168.149 33.8088 167.221 34.25 166.569 35.1338C166.001 35.9132 165.717 36.8984 165.717 38.0878V45.9365H162.31L162.342 35.6888C162.342 33.9647 162.299 32.395 162.214 30.9795H165.183L165.308 33.8415H165.402C165.762 32.8579 166.329 32.066 167.106 31.4721C167.866 30.9375 168.686 30.6709 169.57 30.6709C169.885 30.6709 170.17 30.6927 170.422 30.7317V33.9008Z" fill="white"/>
<path d="M185.667 37.7483C185.667 38.3437 185.627 38.8457 185.542 39.2557H175.316C175.356 40.7334 175.85 41.8636 176.8 42.643C177.662 43.3398 178.776 43.689 180.145 43.689C181.659 43.689 183.04 43.4536 184.282 42.9812L184.816 45.2883C183.364 45.9056 181.651 46.2127 179.673 46.2127C177.294 46.2127 175.426 45.5299 174.067 44.166C172.712 42.802 172.032 40.9704 172.032 38.6727C172.032 36.417 172.664 34.5387 173.928 33.0406C175.252 31.4413 177.041 30.6416 179.292 30.6416C181.503 30.6416 183.177 31.4413 184.314 33.0406C185.214 34.3111 185.667 35.8824 185.667 37.7483ZM182.416 36.8862C182.439 35.9011 182.217 35.05 181.754 34.3313C181.165 33.407 180.258 32.9455 179.038 32.9455C177.924 32.9455 177.017 33.396 176.325 34.3002C175.757 35.0188 175.42 35.8808 175.316 36.8847H182.416V36.8862Z" fill="white"/>
</svg>
