<svg width="130" height="130" viewBox="0 0 130 130" fill="none" xmlns="http://www.w3.org/2000/svg">
<path d="M0 0H129.984V129.984H0V0Z" fill="#2E2E2E"/>
<path d="M16.248 48.7441H48.7441V16.248H16.248V48.7441ZM21.6641 21.6641H43.3281V43.3281H21.6641V21.6641ZM27.0801 27.0801H37.9121V37.9121H27.0801V27.0801ZM81.2402 48.7441H113.736V16.248H81.2402V48.7441ZM86.6562 21.6641H108.32V43.3281H86.6562V21.6641ZM92.0723 27.0801H102.904V37.9121H92.0723V27.0801ZM16.248 113.736H48.7441V81.2402H16.248V113.736ZM21.6641 86.6562H43.3281V108.32H21.6641V86.6562ZM27.0801 92.0723H37.9121V102.904H27.0801V92.0723ZM108.32 102.904H113.736V113.736H102.904V97.4883H108.32V102.904ZM108.32 86.6562H113.736V92.0723H108.32V86.6562ZM108.32 81.2402V86.6562H102.904V81.2402H108.32ZM54.1602 92.0723H59.5762V113.736H54.1602V92.0723ZM32.4961 54.1602V64.9922H21.6641V59.5762H16.248V54.1602H32.4961ZM54.1602 37.9121H59.5762V43.3281H54.1602V37.9121ZM70.4082 21.6641V32.4961H64.9922V16.248H75.8242V21.6641H70.4082ZM54.1602 21.6641H59.5762V27.0801H54.1602V21.6641ZM108.32 64.9922H113.736V75.8242H102.904V70.4082H108.32V64.9922ZM102.904 54.1602V59.5762H92.0723V70.4082H81.2402V64.9922H86.6562V54.1602H102.904ZM64.9922 75.8242H59.5762V70.4082H54.1602V64.9922H64.9922V75.8242ZM97.4883 86.6562H102.904V92.0723H97.4883V86.6562ZM108.32 59.5762V64.9922H102.904V59.5762H108.32ZM59.5762 75.8242V81.2402H54.1602V75.8242H59.5762ZM92.0723 102.904H97.4883V113.736H86.6562V102.904H92.0723ZM75.8242 102.904H81.2402V108.32H75.8242V113.736H64.9922V108.32H70.4082V102.904H75.8242ZM75.8242 97.4883V92.0723H86.6562V97.4883H75.8242ZM75.8242 70.4082H81.2402V86.6562H75.8242V92.0723H70.4082V97.4883H64.9922V86.6562H59.5762V81.2402H75.8242V75.8242H70.4082V70.4082H75.8242ZM27.0801 70.4082V75.8242H21.6641V70.4082H27.0801ZM92.0723 92.0723H86.6562V86.6562H92.0723V92.0723ZM97.4883 81.2402H86.6562V75.8242H97.4883V81.2402ZM43.3281 54.1602H48.7441V59.5762H43.3281V64.9922H48.7441V75.8242H43.3281V70.4082H37.9121V75.8242H32.4961V64.9922H37.9121V54.1602H43.3281ZM59.5762 54.1602V43.3281H75.8242V59.5762H64.9922V54.1602H70.4082V48.7441H64.9922V54.1602H59.5762ZM59.5762 32.4961H64.9922V37.9121H59.5762V32.4961ZM54.1602 54.1602H59.5762V59.5762H54.1602V54.1602ZM70.4082 37.9121V32.4961H75.8242V37.9121H70.4082Z" fill="#EAEAEA"/>
</svg>
