<svg width="121" height="122" viewBox="0 0 121 122" fill="none" xmlns="http://www.w3.org/2000/svg">
<path d="M0 0.368164H121V121.368H0V0.368164Z" fill="white"/>
<path d="M15.125 45.7432H45.375V15.4932H15.125V45.7432ZM20.1667 20.5348H40.3333V40.7015H20.1667V20.5348ZM25.2083 25.5765H35.2917V35.6598H25.2083V25.5765ZM75.625 45.7432H105.875V15.4932H75.625V45.7432ZM80.6667 20.5348H100.833V40.7015H80.6667V20.5348ZM85.7083 25.5765H95.7917V35.6598H85.7083V25.5765ZM15.125 106.243H45.375V75.9932H15.125V106.243ZM20.1667 81.0348H40.3333V101.201H20.1667V81.0348ZM25.2083 86.0765H35.2917V96.1598H25.2083V86.0765ZM100.833 96.1598H105.875V106.243H95.7917V91.1182H100.833V96.1598ZM100.833 81.0348H105.875V86.0765H100.833V81.0348ZM100.833 75.9932V81.0348H95.7917V75.9932H100.833ZM50.4167 86.0765H55.4583V106.243H50.4167V86.0765ZM30.25 50.7848V60.8682H20.1667V55.8265H15.125V50.7848H30.25ZM50.4167 35.6598H55.4583V40.7015H50.4167V35.6598ZM65.5417 20.5348V30.6182H60.5V15.4932H70.5833V20.5348H65.5417ZM50.4167 20.5348H55.4583V25.5765H50.4167V20.5348ZM100.833 60.8682H105.875V70.9515H95.7917V65.9098H100.833V60.8682ZM95.7917 50.7848V55.8265H85.7083V65.9098H75.625V60.8682H80.6667V50.7848H95.7917ZM60.5 70.9515H55.4583V65.9098H50.4167V60.8682H60.5V70.9515ZM90.75 81.0348H95.7917V86.0765H90.75V81.0348ZM100.833 55.8265V60.8682H95.7917V55.8265H100.833ZM55.4583 70.9515V75.9932H50.4167V70.9515H55.4583ZM85.7083 96.1598H90.75V106.243H80.6667V96.1598H85.7083ZM70.5833 96.1598H75.625V101.201H70.5833V106.243H60.5V101.201H65.5417V96.1598H70.5833ZM70.5833 91.1182V86.0765H80.6667V91.1182H70.5833ZM70.5833 65.9098H75.625V81.0348H70.5833V86.0765H65.5417V91.1182H60.5V81.0348H55.4583V75.9932H70.5833V70.9515H65.5417V65.9098H70.5833ZM25.2083 65.9098V70.9515H20.1667V65.9098H25.2083ZM85.7083 86.0765H80.6667V81.0348H85.7083V86.0765ZM90.75 75.9932H80.6667V70.9515H90.75V75.9932ZM40.3333 50.7848H45.375V55.8265H40.3333V60.8682H45.375V70.9515H40.3333V65.9098H35.2917V70.9515H30.25V60.8682H35.2917V50.7848H40.3333ZM55.4583 50.7848V40.7015H70.5833V55.8265H60.5V50.7848H65.5417V45.7432H60.5V50.7848H55.4583ZM55.4583 30.6182H60.5V35.6598H55.4583V30.6182ZM50.4167 50.7848H55.4583V55.8265H50.4167V50.7848ZM65.5417 35.6598V30.6182H70.5833V35.6598H65.5417Z" fill="#171717"/>
</svg>
