<svg width="81" height="81" viewBox="0 0 81 81" fill="none" xmlns="http://www.w3.org/2000/svg">
<g clip-path="url(#clip0_137_2659)">
<path d="M79.1425 56.1521L75.74 54.2053C74.8458 53.2794 67.9124 46.3125 61.5351 46.3125H61.4207C57.4057 46.3653 51.9015 47.7207 46.7863 49.5196C45.3869 48.4036 38.3373 43.0068 32.9088 43.0068C29.3883 43.0068 26.8167 45.5081 26.2199 46.1365C25.127 45.7433 24.01 45.421 22.8755 45.1719C16.6444 43.9063 11.8126 48.7011 11.6102 48.9053C11.5996 48.9159 11.6102 48.9335 11.5943 48.944C6.38234 47.909 2.64365 50.611 1.76707 52.5472C1.28301 53.6033 1.7125 54.3074 2.23 54.5732C3.69978 55.3442 38.2176 73.4321 41.8753 73.4321H41.8982C44.9205 73.3652 63.2953 72.082 65.5097 71.9271L77.4263 76.7607C77.5245 76.8015 77.6298 76.8224 77.7361 76.8223C78.1274 76.8189 78.4626 76.5408 78.5375 76.1565C78.6127 75.7725 78.4073 75.3886 78.0459 75.2381L65.9497 70.3253C65.833 70.2808 65.7084 70.2611 65.5836 70.2672C65.3777 70.2831 44.9715 71.7141 41.8612 71.7845H41.8471C39.6046 71.781 18.0455 60.9962 3.25445 53.2513C3.39878 52.9221 3.86876 52.2585 4.87208 51.6072C5.95461 50.9031 8.93465 49.4545 13.2806 51.1584C17.8871 52.9591 29.0222 57.1642 32.3349 58.4122C31.5041 59.7306 31.0236 60.9839 30.8898 61.8728C30.7928 62.5376 30.9892 63.2118 31.4286 63.7203C31.8678 64.2288 32.5062 64.5214 33.1781 64.5219C33.3559 64.5221 33.5331 64.5015 33.7061 64.4603C35.19 64.1082 48.6134 62.1439 52.7164 61.915C53.0174 61.9087 53.291 61.7385 53.4299 61.4715C53.5687 61.2043 53.5508 60.8827 53.3832 60.6327C53.2155 60.3826 52.9247 60.2439 52.6249 60.271C48.5764 60.4981 35.1372 62.4343 33.3347 62.8585C33.1158 62.9111 32.885 62.8502 32.7204 62.6966C32.5599 62.5498 32.4826 62.3327 32.5145 62.1175C32.7574 60.5051 34.4771 57.1889 38.0574 55.1488C43.9119 51.8185 54.9554 48.0463 61.4401 47.9618H61.5334C67.5058 47.9618 74.5589 55.3547 74.6258 55.4286C74.6816 55.4874 74.7455 55.538 74.8159 55.5783L78.324 57.5849C78.5794 57.7312 78.8935 57.73 79.1476 57.5816C79.4018 57.4334 79.5574 57.1603 79.5556 56.866C79.5539 56.5717 79.3949 56.3008 79.139 56.1556L79.1425 56.1521ZM32.9088 44.6562C37.4853 44.6562 43.3275 48.9546 44.924 50.2026C43.0582 50.9155 41.2698 51.6706 39.6803 52.4433C39.6328 52.3993 39.6222 52.3289 39.5624 52.2955C39.235 52.1195 33.3664 48.8912 27.945 46.7737C28.8568 45.9746 30.6821 44.6562 32.9088 44.6562ZM33.3312 57.0252C30.6522 56.0148 18.6915 51.5034 13.8791 49.6217C13.726 49.5601 13.5869 49.5425 13.4355 49.4897C14.8314 48.3491 18.3729 45.9305 22.5429 46.786C27.3412 47.7664 35.4998 51.991 37.9993 53.3234C37.7564 53.4537 37.4712 53.5857 37.2459 53.716C35.7522 54.5704 34.4282 55.6922 33.34 57.0252H33.3312Z" fill="#7EBF28" stroke="#7EBF28" stroke-width="1.2"/>
<path d="M39.4535 33.0175C39.4546 39.9671 45.0889 45.6002 52.0385 45.5995C58.988 45.5988 64.6214 39.9647 64.6211 33.0152C64.6207 26.0655 58.987 20.432 52.0373 20.432C45.0904 20.4408 39.4613 26.0706 39.4535 33.0175ZM52.0373 22.0795C58.0784 22.0785 62.9763 26.9752 62.977 33.0162C62.9777 39.0575 58.0808 43.9551 52.0396 43.9554C45.9985 43.9558 41.1011 39.0585 41.1011 33.0175C41.108 26.9801 45.9999 22.0873 52.0373 22.0795ZM28.2515 33.2745C32.71 33.2745 36.3242 29.66 36.3239 25.2016C36.3235 20.7432 32.7087 17.1291 28.2503 17.1298C23.7919 17.1305 20.1781 20.7455 20.1792 25.2039C20.1841 29.6599 23.7956 33.2706 28.2515 33.2745ZM28.2515 18.7791C31.7998 18.7791 34.6763 21.6557 34.6763 25.2039C34.6763 28.7521 31.7998 31.6287 28.2515 31.6287C24.7033 31.6287 21.8268 28.7521 21.8268 25.2039C21.8298 21.6567 24.7044 18.7821 28.2515 18.7791ZM40.2773 15.1038C43.5422 15.1049 46.1895 12.4585 46.1899 9.1936C46.1902 5.9287 43.5434 3.28191 40.2785 3.28223C37.0135 3.28254 34.3672 5.92988 34.3683 9.19478C34.3732 12.4562 37.0158 15.0989 40.2773 15.1038ZM40.2773 4.93154C42.6318 4.93154 44.5406 6.84026 44.5406 9.19478C44.5406 11.5493 42.6318 13.458 40.2773 13.458C37.9229 13.458 36.0141 11.5493 36.0141 9.19478C36.0171 6.84146 37.9239 4.93445 40.2773 4.93154Z" fill="#7EBF28" stroke="#7EBF28" stroke-width="1.2"/>
<path d="M49.0851 38.9338C49.917 39.4385 50.8598 39.7316 51.8311 39.7875V40.4142C51.8195 40.6448 51.9142 40.868 52.0881 41.0197C52.2322 41.1418 52.4149 41.2091 52.6038 41.2098C52.7914 41.2091 52.9738 41.1473 53.1231 41.0338C53.3123 40.8873 53.4191 40.6585 53.41 40.4195V39.7682C54.4221 39.6379 55.1931 39.2876 55.6983 38.7261C56.2284 38.1783 56.5541 37.4648 56.6206 36.7054C56.6553 36.3035 56.6333 35.8989 56.5555 35.5032C56.4763 35.0603 56.3092 34.6379 56.0644 34.2605C55.778 33.8509 55.4092 33.5057 54.9819 33.2466C54.4964 32.957 53.9627 32.7573 53.4065 32.6569V27.7776C53.5735 27.8317 53.7323 27.9086 53.8782 28.0064C54.1311 28.1758 54.3579 28.3815 54.5506 28.6172C54.7245 28.8249 54.8572 29.0638 54.9414 29.3213C55.0273 29.5804 55.0827 29.8485 55.1068 30.1205C55.1684 30.6256 55.5222 30.7629 55.8197 30.7365C55.9781 30.7172 56.3601 30.6151 56.4851 29.9779C56.4587 28.9323 56.1207 28.0804 55.48 27.4502C54.912 26.8959 54.1887 26.5275 53.4065 26.3941V25.6161C53.4093 25.3823 53.3072 25.1595 53.1284 25.0088C52.8187 24.7425 52.3577 24.7539 52.0617 25.0352C51.9032 25.1862 51.8163 25.3973 51.8223 25.6161V26.3026C51.3305 26.3471 50.8464 26.4553 50.3824 26.6247C49.8619 26.8113 49.3856 27.1031 48.983 27.4819C48.6094 27.8387 48.3165 28.2715 48.1241 28.751C47.9308 29.2467 47.8565 29.7809 47.9076 30.3106C47.9961 31.2551 48.4457 32.129 49.1626 32.7502C49.9256 33.354 50.8519 33.7157 51.8223 33.7887V38.4463C50.9651 38.3688 50.2926 38.1488 49.8192 37.7915C49.3219 37.4417 48.9654 36.9263 48.8141 36.3375C48.772 35.9851 48.4645 35.7253 48.11 35.7426C47.9044 35.7007 47.6928 35.7792 47.5643 35.945C47.445 36.0932 47.4048 36.29 47.4569 36.4731C47.6177 37.4905 48.2116 38.3882 49.0851 38.9338ZM49.916 31.5181C49.7389 31.3558 49.6011 31.1553 49.5129 30.9319C49.4342 30.7101 49.3821 30.4795 49.358 30.2454C49.3156 29.5765 49.5609 28.9214 50.0321 28.4447C50.4511 28.0064 51.0548 27.7406 51.8293 27.6456V32.4281C51.4676 32.3705 51.1157 32.2626 50.7837 32.1077C50.466 31.9567 50.1735 31.7578 49.916 31.5181ZM53.4065 38.4269V34.0422C53.9178 34.1554 54.3843 34.4168 54.7477 34.7938C55.1104 35.2127 55.2758 35.8253 55.2565 36.6649C55.2475 36.8186 55.2147 36.97 55.1596 37.1138C55.0938 37.3144 54.9926 37.5017 54.8604 37.6665C54.6747 37.877 54.4508 38.0502 54.2003 38.1769C53.9521 38.3056 53.6835 38.3903 53.4065 38.4269Z" fill="#7EBF28" stroke="#7EBF28" stroke-width="1.2"/>
</g>
<defs>
<clipPath id="clip0_137_2659">
<rect width="80" height="80" fill="white" transform="translate(0.666504 0.194336)"/>
</clipPath>
</defs>
</svg>
