<svg width="23" height="23" viewBox="0 0 23 23" fill="none" xmlns="http://www.w3.org/2000/svg">
<path d="M21.5357 22.501C22.2062 22.501 22.7498 21.9573 22.7498 21.2868V1.71516C22.7498 1.04443 22.2061 0.500977 21.5357 0.500977H1.96419C1.29346 0.500977 0.75 1.04452 0.75 1.71516V21.2867C0.75 21.9573 1.29346 22.5009 1.96419 22.5009L21.5357 22.501Z" fill="#485A96"/>
<path d="M15.9296 22.501V13.9814H18.7892L19.2174 10.6612H15.9295V8.54133C15.9295 7.58004 16.1964 6.92497 17.575 6.92497L19.3331 6.92415V3.95455C19.029 3.91416 17.9853 3.82373 16.7712 3.82373C14.2362 3.82373 12.5008 5.37101 12.5008 8.2126V10.6612H9.63379V13.9814H12.5008V22.5009L15.9296 22.501Z" fill="white"/>
</svg>
