<svg width="80" height="81" viewBox="0 0 80 81" fill="none" xmlns="http://www.w3.org/2000/svg">
<path d="M65.3645 27.7898C64.8934 27.7904 64.4535 27.5563 64.1931 27.1664C63.9328 26.7764 63.8869 26.2827 64.0708 25.8521C65.8312 21.8439 64.4621 17.1592 60.8146 14.7097C57.248 12.3814 52.9215 13.2686 49.2383 17.0855C48.9768 17.3557 48.617 17.5105 48.2396 17.5152C47.8097 17.4761 47.4993 17.3715 47.231 17.1064C43.4439 13.3454 39.1342 16.4005 38.953 16.5317C38.6456 16.7552 38.2604 16.8457 37.8848 16.7829C37.5092 16.7202 37.175 16.5094 36.9583 16.1983C35.0155 13.3775 32.6964 11.7229 30.0639 11.2835C25.632 10.5371 21.6398 13.436 21.5991 13.464C20.9771 13.8897 20.1275 13.7509 19.6759 13.1495C19.2241 12.5482 19.3321 11.6998 19.9204 11.2291C20.1199 11.0812 24.8833 7.59634 30.5036 8.52684C33.5617 9.03046 36.2419 10.7185 38.4866 13.5518C40.8409 12.3479 44.6828 11.5653 48.1736 14.2229C53.4188 9.49361 58.8747 10.1047 62.3584 12.38C66.4377 15.0446 69.2261 20.8996 66.6597 26.9388C66.4407 27.4558 65.9306 27.7918 65.3659 27.7912L65.3645 27.7898Z" fill="#7EBF28" stroke="#7EBF28" stroke-width="0.5"/>
<path d="M67.8542 35.8815H3.71475C2.03608 35.883 0.672699 34.5352 0.666504 32.8681V28.0273C0.666504 26.3588 2.0347 25 3.71475 25H16.7913C17.5671 25 18.196 25.6246 18.196 26.3951C18.196 27.1655 17.5671 27.7901 16.7913 27.7901H3.71475C3.65094 27.7886 3.58929 27.813 3.54417 27.8579C3.49904 27.9027 3.47438 27.9639 3.47594 28.0273V32.8681C3.47594 32.9937 3.57989 33.0913 3.71475 33.0913H67.8542C67.9891 33.0913 68.093 32.9937 68.093 32.8681V28.0273C68.0954 27.9637 68.071 27.902 68.0258 27.8569C67.9804 27.812 67.9183 27.7877 67.8542 27.7901H32.7011C31.9253 27.7901 31.2964 27.1655 31.2964 26.3951C31.2964 25.6246 31.9253 25 32.7011 25H67.8542C69.5343 25 70.9025 26.3588 70.9025 28.0273V32.8681C70.9025 34.5296 69.5343 35.8815 67.8542 35.8815Z" fill="#7EBF28" stroke="#7EBF28" stroke-width="0.5"/>
<path d="M64.8467 43.0015C64.4316 43.0019 64.0377 42.82 63.7705 42.5046C63.5033 42.1892 63.3903 41.7726 63.4616 41.3665C63.7384 39.7901 63.8788 38.1676 63.8788 36.548V34.4917C63.8788 33.7212 64.5077 33.0966 65.2835 33.0966C66.0594 33.0966 66.6883 33.7212 66.6883 34.4917V36.548C66.6883 38.3281 66.5352 40.111 66.2303 41.8464C66.1125 42.5134 65.5285 43.0003 64.8467 43.0015ZM19.3633 62.2868C19.0846 62.2868 18.8121 62.2042 18.5808 62.0496C10.015 56.3529 4.87593 46.7874 4.8806 36.5494V34.4931C4.8806 33.7226 5.50952 33.098 6.28532 33.098C7.06114 33.098 7.69004 33.7226 7.69004 34.4931V36.5494C7.6852 45.8582 12.3582 54.5553 20.1471 59.7339C20.6604 60.0763 20.8877 60.7119 20.707 61.2992C20.5264 61.8867 19.9816 62.2875 19.3633 62.2868ZM32.7011 27.7898H16.6929C16.1858 27.7898 15.718 27.5178 15.468 27.0783L5.61527 9.68195C4.61664 7.93902 4.63488 5.79833 5.66303 4.07242C6.67311 2.33661 8.54261 1.27172 10.5613 1.2823C12.2371 1.2823 13.8188 2.01053 14.8991 3.28421L33.7757 25.4949C34.1298 25.9091 34.209 26.4902 33.9784 26.9829C33.7479 27.4756 33.2496 27.7902 32.7025 27.7884L32.7011 27.7898ZM17.5132 24.9997H29.6767L12.7512 5.08384C12.2073 4.44249 11.4057 4.07276 10.5613 4.07382C9.53303 4.07382 8.60733 4.60115 8.08758 5.48283C7.56817 6.35408 7.55905 7.43503 8.0637 8.31479L17.5132 24.9997ZM39.6179 73.7654C37.5993 73.7654 35.5836 73.2562 33.617 72.235C27.019 68.8115 22.1629 60.0561 21.8103 50.9436C21.7948 50.5655 21.9367 50.1958 22.2022 49.9224C22.4677 49.649 22.8624 49.4746 23.2178 49.4955C33.881 49.5234 42.7785 52.8269 46.8171 58.0821C52.7717 49.4551 66.8301 44.1301 77.6718 42.1254C78.0915 42.0484 78.5237 42.165 78.8467 42.4424C79.1696 42.7196 79.3482 43.1275 79.3321 43.5512C78.8981 54.9446 72.0908 66.3743 62.7761 71.3449C57.1165 74.368 51.3038 74.548 46.3072 71.8792C44.1144 73.1362 41.8655 73.7667 39.6193 73.7667L39.6179 73.7654ZM24.7195 52.3135C25.464 59.8259 29.6065 67.0063 34.9191 69.7629C38.2848 71.5081 41.8598 71.3296 45.2677 69.2454C45.7242 68.7989 46.4322 68.718 46.9829 69.0487C51.263 71.6379 56.4015 71.5793 61.4444 68.8868C69.4443 64.618 75.4158 55.0674 76.4005 45.2225C62.8646 48.0753 51.6142 54.4619 48.0954 61.3968C47.8597 61.8758 47.3651 62.1752 46.8283 62.164C46.2924 62.1583 45.8063 61.8513 45.5739 61.3716C43.089 56.2197 34.8124 52.6623 24.7195 52.3149V52.3135Z" fill="#7EBF28" stroke="#7EBF28" stroke-width="0.5"/>
<path d="M46.2246 71.6229C45.6315 71.6265 45.1002 71.2591 44.898 70.7052C44.6958 70.1514 44.8665 69.5312 45.3242 69.1565L64.4663 53.3351C64.8505 53.0036 65.3852 52.9044 65.864 53.0759C66.3427 53.2475 66.6906 53.6627 66.7735 54.1614C66.8563 54.6601 66.6609 55.1643 66.2629 55.4793L47.1208 71.3007C46.8686 71.5088 46.5524 71.6228 46.2246 71.6229Z" fill="#7EBF28" stroke="#7EBF28" stroke-width="0.5"/>
<path d="M46.2231 71.6226C45.8779 71.6227 45.5449 71.4966 45.2875 71.2682L36.6162 63.5843C36.0375 63.0712 35.9872 62.1892 36.5038 61.6144C37.0205 61.0397 37.9085 60.9897 38.4873 61.5028L47.1586 69.1868C47.5932 69.5721 47.7433 70.184 47.5356 70.7247C47.328 71.2655 46.8058 71.6226 46.2231 71.6226Z" fill="#7EBF28" stroke="#7EBF28" stroke-width="0.5"/>
<path d="M46.2143 79.4069C45.4385 79.4069 44.8096 78.7823 44.8096 78.0118V70.2915C44.8096 69.5211 45.4385 68.8965 46.2143 68.8965C46.9901 68.8965 47.619 69.5211 47.619 70.2915V78.0118C47.619 78.7823 46.9901 79.4069 46.2143 79.4069Z" fill="#7EBF28" stroke="#7EBF28" stroke-width="0.5"/>
</svg>
