<svg width="32" height="32" viewBox="0 0 32 32" fill="none" xmlns="http://www.w3.org/2000/svg">
<g clip-path="url(#clip0_137_2553)">
<path d="M26.4159 1.24658C26.3268 1.09441 26.1992 0.968406 26.046 0.881268C25.8927 0.79413 25.7192 0.748939 25.5428 0.75025C25.3666 0.74899 25.1929 0.794207 25.0397 0.881346C24.8865 0.968484 24.759 1.09446 24.67 1.24659L21.7242 6.24585C21.6343 6.39616 21.5863 6.56781 21.5851 6.74297C21.5839 6.91812 21.6296 7.09041 21.7174 7.24194C21.8064 7.39646 21.9346 7.52476 22.0891 7.61392C22.2435 7.70307 22.4187 7.74993 22.597 7.74975H23.2557L23.2557 10.4747L24.2557 12.208L24.2557 7.24975C24.2557 7.11715 24.203 6.99 24.1093 6.89623C24.0155 6.80247 23.8883 6.74978 23.7557 6.74975L22.5856 6.75366L25.5546 1.75439L28.4886 6.74975C28.4719 6.74971 28.4551 6.75052 28.4384 6.75219L27.1998 6.87744C27.0766 6.88995 26.9623 6.94776 26.8792 7.03968C26.7962 7.13161 26.7501 7.25109 26.7501 7.375V24.625C26.7501 26.4023 25.832 27.7015 24.1035 28.463C23.9296 28.9262 23.6981 29.3658 23.4144 29.7712C27.2505 28.6718 27.7501 25.9552 27.7501 24.625V7.8269L28.5182 7.74927C28.6914 7.7445 28.8605 7.69537 29.0094 7.6066C29.1582 7.51782 29.2818 7.39235 29.3683 7.24219C29.4562 7.09063 29.5019 6.91832 29.5008 6.74312C29.4996 6.56792 29.4516 6.39623 29.3617 6.24585L26.4159 1.24658ZM5.50012 4C5.50012 4.79113 5.73472 5.56448 6.17424 6.22228C6.61377 6.88008 7.23849 7.39277 7.96939 7.69552C8.70029 7.99827 9.50456 8.07748 10.2805 7.92314C11.0564 7.7688 11.7691 7.38784 12.3286 6.82843C12.888 6.26902 13.2689 5.55629 13.4233 4.78036C13.5776 4.00444 13.4984 3.20017 13.1956 2.46927C12.8929 1.73836 12.3802 1.11365 11.7224 0.674122C11.0646 0.234596 10.2912 0 9.50012 0C8.43963 0.00121285 7.42292 0.42303 6.67304 1.17291C5.92315 1.9228 5.50134 2.93951 5.50012 4ZM12.5001 4C12.5001 4.59334 12.3242 5.17336 11.9945 5.66671C11.6649 6.16006 11.1964 6.54458 10.6482 6.77164C10.1 6.9987 9.4968 7.05811 8.91485 6.94236C8.33291 6.8266 7.79836 6.54088 7.3788 6.12132C6.95925 5.70176 6.67352 5.16721 6.55777 4.58527C6.44201 4.00333 6.50142 3.40013 6.72849 2.85195C6.95555 2.30377 7.34007 1.83524 7.83341 1.50559C8.32676 1.17595 8.90678 1 9.50012 1C10.2955 1.00087 11.0581 1.31722 11.6205 1.87964C12.1829 2.44206 12.4993 3.20462 12.5001 4ZM16.5001 13.4473C16.5123 11.5017 15.652 9.18506 13.2013 8.51758C13.1965 8.51628 13.1917 8.51634 13.187 8.5152C13.1696 8.51136 13.152 8.50846 13.1344 8.5065C13.1182 8.50441 13.1021 8.50212 13.0859 8.50162C13.0805 8.50145 13.0754 8.5 13.0699 8.5H6.32654C5.96264 8.49615 5.60153 8.56393 5.26379 8.69946C3.20935 9.54907 2.48914 11.709 2.50012 13.4473C2.51184 15.2917 3.25696 16.918 4.4928 17.7971C4.80104 18.0165 5.14064 18.1881 5.50012 18.306V30.6726C5.49338 31.0172 5.62353 31.3504 5.86205 31.5993C6.10057 31.8481 6.428 31.9922 6.77258 32H12.2123C12.5566 31.9921 12.8838 31.8482 13.1223 31.5997C13.3607 31.3513 13.4911 31.0184 13.4847 30.6741L13.4998 18.3061C13.8594 18.1882 14.1991 18.0166 14.5074 17.7971C15.7433 16.918 16.4884 15.2917 16.5001 13.4473ZM12.4847 30.6731C12.4911 30.7524 12.4662 30.831 12.4152 30.8922C12.3643 30.9533 12.2914 30.992 12.2123 31H10.0001V21.75C10.0001 21.6174 9.94745 21.4902 9.85368 21.3964C9.75991 21.3027 9.63273 21.25 9.50012 21.25C9.36752 21.25 9.24034 21.3027 9.14657 21.3964C9.0528 21.4902 9.00012 21.6174 9.00012 21.75V31H6.77258C6.69335 30.992 6.62044 30.9532 6.5695 30.8919C6.51856 30.8307 6.49365 30.752 6.50012 30.6726V18.4905C6.57012 18.4942 6.64005 18.4983 6.71082 18.4983C7.21627 18.4948 7.71773 18.4083 8.19519 18.2424C8.62106 18.0966 9.05726 17.9828 9.50012 17.9021C9.94299 17.9828 10.3792 18.0966 10.8051 18.2424C11.2825 18.4085 11.784 18.4949 12.2894 18.4983C12.36 18.4983 12.4297 18.4942 12.4995 18.4905L12.4847 30.6731ZM13.9276 16.9822C13.1403 17.5427 12.171 17.6509 11.1273 17.2957C10.2438 16.9836 9.31674 16.8119 8.38002 16.7869L8.23475 16.7856C7.97302 16.8026 7.71039 16.7715 7.45985 16.6938C7.34376 16.6297 7.2527 16.5282 7.20139 16.4059C7.15008 16.2836 7.14154 16.1476 7.17712 16.0198C7.29382 15.4334 8.07898 15.0894 8.61316 15.0894C8.62537 15.0894 8.63733 15.0896 8.64905 15.0899C9.79877 15.1579 10.9343 15.379 12.0256 15.7471C12.0841 15.8055 12.1564 15.8484 12.2357 15.8718C12.315 15.8952 12.399 15.8984 12.4799 15.8811C12.7591 15.8077 13.0182 15.6723 13.2379 15.4849C13.4576 15.2975 13.6321 15.063 13.7487 14.7988C13.8911 14.5365 13.9733 14.2458 13.9896 13.9477C14.0058 13.6496 13.9555 13.3517 13.8424 13.0755C13.7855 12.956 13.6836 12.8639 13.559 12.8194C13.4344 12.7749 13.2972 12.7817 13.1776 12.8381C13.0579 12.8946 12.9655 12.9962 12.9206 13.1207C12.8757 13.2452 12.882 13.3824 12.9381 13.5022C12.9845 13.6424 13.0008 13.7909 12.986 13.9378C12.9713 14.0848 12.9257 14.227 12.8524 14.3552C12.7626 14.55 12.6199 14.7157 12.4406 14.8334C12.3349 14.7953 12.2285 14.7576 12.1147 14.7212C11.6093 14.3074 10.9746 14.0841 10.3214 14.0903C10.0707 14.0978 9.79106 14.1226 9.50012 14.1574C9.20918 14.1226 8.92956 14.0978 8.67883 14.0903C8.01997 14.0797 7.379 14.3049 6.87162 14.7254C6.71312 14.7763 6.56201 14.8289 6.42007 14.883C6.24938 14.7985 6.11784 14.6514 6.05287 14.4724C5.97559 14.3365 5.92637 14.1865 5.90812 14.0313C5.88988 13.876 5.90299 13.7187 5.94667 13.5686C6.02061 13.4587 6.04792 13.324 6.02262 13.194C5.99731 13.064 5.92144 12.9493 5.81168 12.8752C5.70192 12.8011 5.56723 12.7735 5.43718 12.7986C5.30714 12.8237 5.19236 12.8994 5.11806 13.009C4.76332 13.5342 4.87953 14.3403 5.15175 14.906C5.24371 15.1323 5.38471 15.3353 5.5646 15.5005C5.7445 15.6657 5.9588 15.789 6.19206 15.8614C6.1272 16.1671 6.15424 16.4852 6.26977 16.7755C6.3853 17.0659 6.58416 17.3156 6.84131 17.4932C6.21082 17.5286 5.58705 17.3484 5.07262 16.9822C4.09753 16.2888 3.50987 14.9648 3.50012 13.4409C3.49109 12.0283 4.05017 10.2835 5.64562 9.62379C5.86233 9.53844 6.09366 9.49638 6.32654 9.5H12.9921C14.8532 10.0392 15.5098 11.8825 15.5001 13.4409C15.4904 14.9648 14.9027 16.2888 13.9276 16.9822Z" fill="#5D8A1E"/>
<path d="M23.4996 17.0002H24.1339C24.3094 17.0002 24.4818 16.954 24.6338 16.8663C24.7858 16.7786 24.912 16.6524 24.9998 16.5004C25.0875 16.3485 25.1338 16.1761 25.1338 16.0006C25.1339 15.8252 25.0878 15.6527 25.0001 15.5007L22.1159 10.5012C22.0281 10.3491 21.9018 10.2228 21.7498 10.135C21.5977 10.0472 21.4252 10.001 21.2496 10.001C21.074 10.001 20.9016 10.0472 20.7495 10.135C20.5974 10.2228 20.4712 10.3491 20.3834 10.5012L17.4991 15.5005C17.4115 15.6525 17.3653 15.8249 17.3654 16.0004C17.3654 16.1759 17.4117 16.3483 17.4994 16.5003C17.5872 16.6523 17.7135 16.7785 17.8655 16.8663C18.0174 16.954 18.1899 17.0002 18.3654 17.0002H18.9996V26.5002C18.9996 28.4922 17.4777 30.8308 15.2938 31.0017C15.165 31.0118 15.0451 31.0714 14.9593 31.168C14.8735 31.2646 14.8283 31.3906 14.8334 31.5197C14.8384 31.6488 14.8933 31.771 14.9864 31.8606C15.0795 31.9501 15.2037 32.0002 15.3329 32.0002C20.4467 32.0002 23.4996 29.8508 23.4996 26.2502V17.0002ZM22.4996 16.5002V26.2502C22.4996 28.5788 20.9454 30.1413 18.1439 30.7341C18.7181 30.1863 19.1777 29.53 19.4963 28.8032C19.8148 28.0764 19.9859 27.2936 19.9996 26.5002V16.5002C19.9996 16.3676 19.947 16.2404 19.8532 16.1467C19.7594 16.0529 19.6322 16.0002 19.4996 16.0002H18.3654L21.2496 11.0007L24.1339 16.0002H22.9996C22.867 16.0002 22.7399 16.0529 22.6461 16.1467C22.5523 16.2404 22.4996 16.3676 22.4996 16.5002Z" fill="#5D8A1E"/>
</g>
<defs>
<clipPath id="clip0_137_2553">
<rect width="32" height="32" fill="white"/>
</clipPath>
</defs>
</svg>
