<svg width="23" height="23" viewBox="0 0 23 23" fill="none" xmlns="http://www.w3.org/2000/svg">
<path d="M22.0297 11.7455C22.0297 10.841 21.9563 10.181 21.7975 9.49658H11.4697V13.5788H17.5319C17.4097 14.5932 16.7497 16.121 15.283 17.1476L15.2625 17.2843L18.5279 19.814L18.7542 19.8366C20.8319 17.9177 22.0297 15.0943 22.0297 11.7455Z" fill="#4285F4"/>
<path d="M11.4703 22.5012C14.4402 22.5012 16.9335 21.5234 18.7547 19.8368L15.2836 17.1478C14.3547 17.7956 13.108 18.2478 11.4703 18.2478C8.56138 18.2478 6.09251 16.329 5.21243 13.6768L5.08343 13.6877L1.68796 16.3155L1.64355 16.4389C3.45243 20.0322 7.16799 22.5012 11.4703 22.5012Z" fill="#5D8A1E"/>
<path d="M5.2119 13.6767C4.97969 12.9922 4.84529 12.2588 4.84529 11.5011C4.84529 10.7433 4.97969 10.01 5.19969 9.32553L5.19354 9.17976L1.75552 6.50977L1.64303 6.56327C0.897509 8.0544 0.469727 9.72888 0.469727 11.5011C0.469727 13.2733 0.897509 14.9477 1.64303 16.4388L5.2119 13.6767Z" fill="#FBBC05"/>
<path d="M11.4703 4.75428C13.5358 4.75428 14.9291 5.6465 15.7236 6.39211L18.828 3.36098C16.9214 1.58876 14.4402 0.500977 11.4703 0.500977C7.16799 0.500977 3.45243 2.96985 1.64355 6.56316L5.20021 9.32542C6.09251 6.6732 8.56138 4.75428 11.4703 4.75428Z" fill="#EB4335"/>
</svg>
