<svg width="90" height="90" viewBox="0 0 90 90" fill="none" xmlns="http://www.w3.org/2000/svg">
<g clip-path="url(#clip0_548_2842)">
<path d="M64.0212 6.60618C83.4331 12.3384 89.1623 31.7306 76.8159 49.912C64.4699 68.0923 38.7177 78.1895 19.3071 72.4573C-0.10349 66.725 -5.83528 47.3329 6.51075 29.1514C18.8571 10.9712 44.6093 0.873922 64.0212 6.60618Z" fill="#FFD254"/>
<path d="M88.3779 51.126C88.2479 51.5342 88.1056 51.931 87.9517 52.3389C87.6559 53.1439 87.3244 53.96 86.934 54.7764C86.5789 55.5814 86.1766 56.3861 85.7385 57.1911C85.0638 58.4153 84.33 59.6399 83.5014 60.8528C82.2825 62.6441 80.9332 64.3444 79.4773 65.9769C78.2938 67.3147 77.0156 68.5957 75.6782 69.7975C74.5893 70.8062 73.4411 71.7586 72.2695 72.6657H72.2576C58.8713 83.0387 40.6326 87.721 25.992 83.3901C18.6895 81.236 13.316 77.1435 10.1204 71.906C8.84225 69.8086 7.55216 67.7114 6.27398 65.6029C5.32701 64.0611 4.39195 62.5078 3.44531 60.9663C3.6584 61.3178 3.88306 61.6692 4.13188 62.0093C4.32115 62.304 4.53423 62.5874 4.74732 62.871C4.94849 63.1429 5.14966 63.4038 5.36275 63.6532C5.44547 63.7552 5.52852 63.8573 5.61124 63.9593H5.62315C5.69429 64.0386 5.76509 64.1295 5.83623 64.2088C5.98414 64.3872 6.15024 64.5539 6.30409 64.7285C6.44604 64.8826 6.60056 65.0429 6.75938 65.195C6.83052 65.2743 6.91324 65.3538 6.98438 65.4331C7.15015 65.6032 7.3275 65.7617 7.50518 65.9319C7.61172 66.0225 7.70635 66.1132 7.81289 66.2152C7.96675 66.3626 8.13252 66.4986 8.29829 66.6345C8.29829 66.6459 8.3102 66.6459 8.3102 66.6459C8.41675 66.748 8.53487 66.8386 8.65332 66.9407C8.77178 67.0427 8.8899 67.1334 9.00836 67.224C9.05567 67.2579 9.09107 67.2922 9.13839 67.3375C9.31607 67.462 9.48151 67.5983 9.65919 67.7343C9.71842 67.7796 9.77765 67.8249 9.83687 67.8702C10.0026 67.9837 10.1565 68.0968 10.3223 68.2103C10.4288 68.2784 10.5354 68.3577 10.6538 68.4369C10.7838 68.5275 10.9023 68.6068 11.0327 68.6977C11.4029 68.9373 11.7791 69.1646 12.1636 69.388C12.4482 69.5617 12.74 69.7214 13.0447 69.8881C13.1159 69.9334 13.1986 69.9673 13.2694 70.0127C13.4706 70.1147 13.6717 70.2168 13.8848 70.3302C13.9914 70.3755 14.0979 70.4323 14.2045 70.489C14.4295 70.6025 14.666 70.7156 14.9026 70.8177C15.0684 70.8969 15.2457 70.965 15.4115 71.0443C15.4942 71.0782 15.5888 71.1235 15.6719 71.1577C15.9915 71.2937 16.3227 71.4296 16.6662 71.5545C17.0212 71.6905 17.3643 71.8264 17.7313 71.9513C18.2521 72.1326 18.7729 72.3028 19.3172 72.4616C38.7278 78.1865 64.4823 68.0968 76.8267 49.9128C77.6552 48.6999 78.401 47.4753 79.0637 46.251C79.2887 45.8428 79.5015 45.4346 79.703 45.0268C80.1172 44.2107 80.4842 43.3943 80.8273 42.5782C81.5019 40.9571 82.0347 39.3357 82.437 37.726C82.7447 36.5242 82.9697 35.3228 83.1117 34.1438C83.2655 32.9648 83.3367 31.797 83.3367 30.6522C83.3367 30.3007 83.3248 29.9607 83.3132 29.6206C83.3013 29.2805 83.2894 28.9405 83.2539 28.6004C83.2305 28.2604 83.1947 27.9314 83.1593 27.6027C83.1239 27.2741 83.0766 26.9565 83.0174 26.6393C83.0174 26.5826 83.0055 26.5258 82.9935 26.458C82.9462 26.1861 82.8989 25.9024 82.8397 25.6305C82.7685 25.279 82.6977 24.9276 82.6031 24.5761C82.532 24.2813 82.4493 23.9866 82.3665 23.7033C82.1892 23.0685 81.9761 22.4451 81.7392 21.8442C81.6326 21.538 81.5026 21.2433 81.3722 20.9371C81.1118 20.3137 80.816 19.7014 80.4845 19.1005C80.3426 18.8397 80.1887 18.5789 80.0348 18.3184C80.4491 18.976 80.8514 19.6447 81.2538 20.3023C83.0293 23.2158 84.8044 26.1179 86.5799 29.0314C90.3662 35.2318 91.1 43.0314 88.3779 51.126Z" fill="#F7A912"/>
<path d="M5.83594 64.2091C5.98384 64.3875 6.14994 64.5542 6.3038 64.7288C6.28626 64.7098 6.26773 64.693 6.2502 64.674C6.12016 64.5152 5.97788 64.3679 5.83594 64.2091ZM88.3783 51.1267C88.2483 51.5349 88.106 51.9316 87.9521 52.3395C87.6444 53.1445 87.3129 53.9606 86.9343 54.777C86.5674 55.582 86.165 56.3867 85.7389 57.1917C85.0642 58.416 84.3303 59.6406 83.5018 60.8535C82.2829 62.6447 80.9335 64.345 79.4777 65.9775C77.3591 62.5199 75.2524 59.0622 73.1457 55.6045C71.9502 56.9309 70.672 58.2005 69.3346 59.4137C71.4532 62.8713 73.5599 66.3404 75.6786 69.7981C74.5777 70.7958 73.4534 71.7478 72.2699 72.6663H72.2579C70.1512 69.2086 68.0326 65.7395 65.914 62.2818C52.5396 72.5981 34.3364 77.269 19.7311 72.9496C14.0258 71.2613 9.53283 68.3963 6.3038 64.7288C6.45402 64.8892 6.61085 65.0432 6.75909 65.1954C6.83022 65.2746 6.91294 65.3541 6.98408 65.4334C7.16176 65.6036 7.33911 65.7734 7.50488 65.9322C7.61143 66.0229 7.70606 66.1135 7.8126 66.2155C7.96646 66.3629 8.13223 66.4989 8.298 66.6348C8.298 66.6463 8.30991 66.6463 8.30991 66.6463C8.42836 66.7483 8.53457 66.8389 8.65303 66.941C8.77148 67.043 8.88961 67.1337 9.00806 67.2243C9.05538 67.2582 9.09078 67.2925 9.13809 67.3378C9.31578 67.4623 9.48121 67.5986 9.6589 67.7346C9.71812 67.7685 9.77735 67.8138 9.83658 67.8591C10.0023 67.9726 10.1562 68.0971 10.322 68.2106C10.4285 68.2787 10.5351 68.358 10.6535 68.4372C10.9106 68.6087 11.1789 68.7801 11.4473 68.9513C11.7507 69.1417 12.0511 69.3344 12.3694 69.5141C12.5825 69.6387 12.8072 69.7635 13.0441 69.8881C13.1152 69.9334 13.198 69.9673 13.2688 70.0127C13.4699 70.1147 13.6711 70.2282 13.8842 70.3302C13.9907 70.3755 14.0973 70.4323 14.2038 70.489C14.4288 70.6025 14.6654 70.7156 14.902 70.8176C15.0678 70.8969 15.2451 70.9764 15.4109 71.0443C15.4936 71.0782 15.5882 71.1235 15.6713 71.1577C15.9909 71.2937 16.3221 71.4296 16.6656 71.5545C17.0087 71.6905 17.3637 71.8264 17.7307 71.9513C18.2515 72.1326 18.7723 72.3028 19.3165 72.4615C38.7271 78.1865 64.4817 68.0968 76.826 49.9128C77.6546 48.6999 78.4003 47.4753 79.0631 46.251C79.2881 45.8428 79.5008 45.4346 79.7024 45.0268C80.1166 44.2107 80.4836 43.3943 80.8267 42.5782C81.5013 40.9571 82.034 39.3357 82.4364 37.726C82.7441 36.5242 82.9691 35.3228 83.1111 34.1438C83.2649 32.9648 83.336 31.797 83.336 30.6522C83.336 30.3007 83.3241 29.9607 83.3126 29.6206C83.3006 29.2806 83.2887 28.9405 83.2533 28.6004C83.2298 28.2604 83.1941 27.9314 83.1587 27.6027C83.1233 27.2741 83.076 26.9565 83.0167 26.6393C83.0167 26.5825 83.0048 26.5258 82.9929 26.458C82.9456 26.1861 82.8983 25.9024 82.8391 25.6305C82.7679 25.279 82.6971 24.9276 82.6025 24.5761C82.5314 24.2813 82.4486 23.9866 82.3659 23.7033C82.1886 23.0685 81.9755 22.4451 81.7386 21.8442C81.632 21.538 81.502 21.2433 81.3716 20.9371C81.1112 20.3137 80.8154 19.7014 80.4839 19.1005C80.3419 18.8397 80.1881 18.5789 80.0342 18.3184C80.4485 18.976 80.8508 19.6447 81.2532 20.3023C84.2122 26.2314 84.5792 33.4076 82.0698 40.8104C84.1765 44.2452 86.2713 47.6915 88.3783 51.1267Z" fill="#FFD254"/>
<path opacity="0.6" d="M58.3702 14.0607C73.1866 18.4346 77.5598 33.2322 68.1368 47.1114C58.7124 60.9906 39.0609 68.6935 24.2442 64.3184C9.42652 59.9432 5.05496 45.1455 14.4777 31.2679C23.9021 17.3875 43.5539 9.68457 58.3702 14.0607Z" fill="white"/>
<path d="M58.7239 14.403C73.5402 18.7782 77.9134 33.5755 68.4877 47.4547C59.0647 61.3339 39.4142 69.0368 24.5965 64.6616C9.77881 60.2864 5.4056 45.4891 14.83 31.6099C24.2547 17.7311 43.9049 10.0278 58.7239 14.403Z" fill="#F7A912"/>
<path d="M17.3515 34.0921C26.7746 20.2132 46.426 12.51 61.2437 16.8852C64.4079 17.8201 67.0926 19.2336 69.2711 21.0078C66.7902 18.0512 63.2452 15.7398 58.7214 14.403C43.9024 10.0278 24.2523 17.7311 14.8279 31.6099C7.41724 42.5249 8.54222 54.0034 16.5657 60.5381C10.9222 53.8123 10.8048 43.7327 17.3515 34.0921Z" fill="#FF7B00"/>
<path opacity="0.2" d="M72.2414 72.6662C58.8551 83.0393 40.6165 87.7215 25.9758 83.3907C18.6733 81.2366 13.2999 77.1441 10.1043 71.9066C8.82608 69.8091 7.53599 67.712 6.25781 65.6035C16.2705 74.5253 35.4915 80.3413 72.2414 72.6662Z" fill="#606060"/>
<path d="M55.4623 21.4858C55.8967 21.4484 56.313 21.5549 56.6296 21.8103C57.212 22.293 57.305 23.1639 56.8417 23.9486L48.9218 37.5711L55.3839 38.8246C56.0708 38.9612 56.5264 39.4863 56.5499 40.182C56.576 40.8725 56.1743 41.611 55.5083 42.067L30.9612 59.0439C30.6025 59.2908 30.2114 59.4312 29.8345 59.4638C29.6605 59.4787 29.4891 59.4714 29.3253 59.44C29.0857 59.3925 28.8581 59.2933 28.6712 59.1393C28.0809 58.6629 27.9945 57.7917 28.4511 57.0073L36.3776 43.3785L29.9103 42.1263C29.227 41.9935 28.7744 41.4646 28.7482 40.7737C28.7234 40.078 29.1251 39.3446 29.7912 38.8835L54.3396 21.9054C54.694 21.6601 55.0854 21.5184 55.4623 21.4858Z" fill="#FF7B00"/>
<path d="M54.4783 19.5981C54.9127 19.5607 55.3289 19.6672 55.6456 19.9226C56.2279 20.4053 56.3209 21.2762 55.8577 22.0609L47.9378 35.6837L54.3998 36.9372C55.0867 37.0738 55.5424 37.5989 55.5658 38.2946C55.592 38.9852 55.1903 39.7236 54.5242 40.1797L29.9768 57.1565C29.6181 57.4034 29.227 57.5438 28.8501 57.5764C28.6761 57.5913 28.5047 57.584 28.3409 57.5526C28.1014 57.5051 27.8737 57.4059 27.6868 57.2519C27.0965 56.7755 27.0101 55.9043 27.4667 55.1199L35.3932 41.4911L28.9259 40.2389C28.2427 40.1061 27.79 39.5772 27.7639 38.8863C27.7391 38.1906 28.1407 37.4573 28.8068 36.9961L53.3553 20.018C53.7103 19.7724 54.1014 19.6307 54.4783 19.5981Z" fill="#FFD321"/>
<path opacity="0.5" d="M3.43238 53.0687C3.43238 53.0687 -1.09038 15.9968 47.3282 7.6543C47.3282 7.6543 7.48662 15.4406 3.43238 53.0687Z" fill="white"/>
</g>
<defs>
<clipPath id="clip0_548_2842">
<rect width="90" height="90" fill="white"/>
</clipPath>
</defs>
</svg>
