<svg width="80" height="81" viewBox="0 0 80 81" fill="none" xmlns="http://www.w3.org/2000/svg">
<path d="M7.46094 11.5127H14.459C15.4101 11.5127 16.1797 12.2815 16.1797 13.2285C16.1797 14.1755 15.4102 14.9443 14.459 14.9443H7.46094C6.23509 14.9446 5.24031 15.936 5.24023 17.1602V73.085C5.24023 74.3092 6.23504 75.3006 7.46094 75.3008H36.9365C37.8875 75.3008 38.658 76.0698 38.6582 77.0166C38.6582 77.9636 37.8877 78.7334 36.9365 78.7334H7.46094C4.33263 78.7332 1.79785 76.2033 1.79785 73.085V17.1602L1.80566 16.8701C1.95225 13.9827 4.27337 11.6669 7.16992 11.5205L7.46094 11.5127ZM43.502 11.5127H50.5C53.6284 11.5128 56.163 14.0418 56.1631 17.1602V27.9336C56.1629 28.8803 55.3933 29.6493 54.4424 29.6494C53.4913 29.6494 52.7209 28.8804 52.7207 27.9336V17.1602C52.7206 15.9359 51.7259 14.9445 50.5 14.9443H43.502C42.5509 14.9442 41.7812 14.1755 41.7812 13.2285C41.7813 12.3407 42.4578 11.6094 43.3262 11.5215L43.502 11.5127Z" fill="#7EBF28" stroke="white" stroke-width="0.5"/>
<path d="M56.6533 33.9961C69.0209 33.9961 79.0829 44.0316 79.083 56.3643C79.083 68.697 69.021 78.7324 56.6533 78.7324C44.2858 78.7323 34.2246 68.6969 34.2246 56.3643C34.2248 44.0317 44.2859 33.9963 56.6533 33.9961ZM56.6533 37.4287C46.1845 37.4289 37.6671 45.9273 37.667 56.3643C37.667 66.8014 46.1897 75.3006 56.6533 75.3008C67.117 75.3008 75.6406 66.8015 75.6406 56.3643C75.6405 45.9272 67.1222 37.4287 56.6533 37.4287ZM20.7236 58.9258C21.3567 58.3162 22.3394 58.2862 23.0068 58.8301L23.1367 58.9473C23.799 59.6082 23.8091 60.6754 23.1602 61.3486L16.1738 68.3164C15.8521 68.6359 15.4164 68.8157 14.9619 68.8164L14.792 68.8086C14.4542 68.7753 14.1337 68.643 13.8711 68.4287L13.7441 68.3145L10.0059 64.584L9.99609 64.5752L9.91016 64.4932C9.49743 64.0696 9.33016 63.4609 9.47461 62.8828C9.61929 62.3046 10.054 61.8448 10.6182 61.6641L10.7324 61.6318C11.3521 61.4796 12.0053 61.6815 12.4297 62.1562L12.4346 62.1611L12.4395 62.167L14.7852 64.5059L14.9619 64.6826L15.1387 64.5059L20.7236 58.9258ZM20.7236 42.6416C21.3569 42.0321 22.3395 42.0028 23.0068 42.5469L23.1367 42.6631C23.7991 43.3239 23.809 44.3911 23.1602 45.0645L16.1729 52.0332C15.8524 52.3547 15.4167 52.5367 14.9619 52.5371L14.792 52.5283C14.4541 52.4951 14.1337 52.3628 13.8711 52.1484L13.7441 52.0342L10.0059 48.3047C9.39738 47.6734 9.36845 46.6955 9.91309 46.0312L10.0303 45.9023C10.693 45.2418 11.7639 45.2312 12.4395 45.8779V45.8789L14.7852 48.2178L14.9619 48.3945L15.1387 48.2178L20.7236 42.6416ZM29.834 33.9961H36.9365C37.8877 33.9961 38.6582 34.7659 38.6582 35.7129C38.658 36.6597 37.8875 37.4287 36.9365 37.4287H29.834C28.883 37.4287 28.1125 36.6597 28.1123 35.7129C28.1123 34.7659 28.8828 33.9961 29.834 33.9961ZM20.7256 26.3584C21.3569 25.7314 22.3542 25.6925 23.0303 26.2422L23.1611 26.3604C23.7908 26.988 23.8322 27.9812 23.2832 28.6562L23.165 28.7861L16.1787 35.7529C15.8561 36.0744 15.4182 36.2548 14.9619 36.2549L14.792 36.2471C14.4541 36.2135 14.1336 36.0808 13.8711 35.8662L13.7441 35.752L10.0059 32.0234C9.37543 31.3955 9.33553 30.4009 9.88672 29.7266L10.0049 29.5957C10.6353 28.967 11.6334 28.9281 12.3096 29.4785L12.4395 29.5957L14.7852 31.9365L14.9619 32.1133L15.1387 31.9365L20.7256 26.3584ZM29.834 25.8555H45.8848C46.8358 25.8556 47.6055 26.6244 47.6055 27.5713C47.6054 28.5181 46.8358 29.287 45.8848 29.2871H29.834C28.8829 29.2871 28.1124 28.5182 28.1123 27.5713C28.1123 26.6243 28.8828 25.8555 29.834 25.8555ZM28.9814 1.65625C32.2043 1.65625 35.0302 3.80225 35.8877 6.89941L35.9385 7.08301H43.5029C44.4541 7.08301 45.2246 7.85181 45.2246 8.79883V17.6582C45.2245 18.6055 44.4535 19.3747 43.502 19.374H14.46C13.5089 19.3739 12.7394 18.605 12.7393 17.6582V8.79883C12.7393 7.85188 13.5088 7.08312 14.46 7.08301H22.0254L22.0762 6.89941C22.9068 3.89908 25.5841 1.79096 28.6807 1.66211L28.9814 1.65625ZM32.7002 8.79395C32.6607 6.77222 31.0065 5.15432 28.9805 5.1543C27.0176 5.1543 25.4032 6.67241 25.2686 8.60547L25.2607 8.79395V8.79883C25.2605 9.74565 24.4901 10.5146 23.5391 10.5146H16.1797V10.7646L16.1816 15.6924V15.9424H41.7812V10.5146H34.4219C33.4708 10.5146 32.7004 9.74565 32.7002 8.79883V8.79395Z" fill="#7EBF28" stroke="white" stroke-width="0.5"/>
<path d="M52.5 43.7305H60.8066C61.7578 43.7305 62.5283 44.4993 62.5283 45.4463V50.5078H67.6025C68.5536 50.508 69.3232 51.2768 69.3232 52.2236V60.5059C69.3232 61.4527 68.5536 62.2215 67.6025 62.2217H62.5283V67.2832C62.5283 68.2302 61.7578 68.999 60.8066 68.999H52.5C51.549 68.9988 50.7793 68.23 50.7793 67.2832V62.2217H45.7061C44.7551 62.2214 43.9854 61.4527 43.9854 60.5059V52.2236C43.9854 51.2768 44.7551 50.5081 45.7061 50.5078H50.7793V45.4463C50.7793 44.4995 51.5491 43.7307 52.5 43.7305ZM54.2217 52.2236C54.2215 53.1705 53.4511 53.9395 52.5 53.9395H47.4277V58.79H52.5C53.4511 58.79 54.2215 59.559 54.2217 60.5059V65.5674H59.0859V60.5059C59.0861 59.5591 59.8557 58.7902 60.8066 58.79H65.8809V53.9395H60.8066C59.8557 53.9393 59.0861 53.1704 59.0859 52.2236V47.1621H54.2217V52.2236Z" fill="#7EBF28" stroke="white" stroke-width="0.5"/>
</svg>
