<svg width="80" height="81" viewBox="0 0 80 81" fill="none" xmlns="http://www.w3.org/2000/svg">
<path d="M28.8192 58.2327C30.597 58.2327 32.0941 56.7353 32.0941 54.9571C32.0941 53.179 30.597 51.6816 28.8192 51.6816C27.0415 51.6816 25.5444 53.179 25.5444 54.9571C25.5444 56.7353 27.0415 58.2327 28.8192 58.2327Z" fill="#7EBF28"/>
<path d="M75.5085 68.8077H73.7307V55.7991C73.7307 45.9726 66.526 37.5496 56.7951 36.0523C65.2161 30.5306 67.5553 19.1131 62.0349 10.6903C56.5146 2.26752 45.0057 -0.0721037 36.5847 5.54302C28.1637 11.1581 25.731 22.4822 31.3449 30.905C32.7484 32.964 34.4326 34.742 36.5847 36.1459C34.6197 36.4267 32.7486 36.9882 30.9708 37.8304H8.14025C5.52036 37.8304 3.3684 40.0764 3.64898 42.7905L5.89452 67.4974C5.9881 67.9652 6.08169 68.4333 6.26887 68.8075H4.58486C2.05856 68.9013 0 70.9603 0 73.4872C0.0935882 76.014 2.05856 77.9794 4.58486 78.073H75.4151C77.9414 77.9794 80 75.9206 80 73.3935C80 70.8665 77.9413 68.8077 75.5085 68.8077ZM70.4559 55.7991V68.7141H63.9063C64.0935 68.2463 64.2806 67.7782 64.374 67.2168L64.9354 63.9413C65.1226 62.9118 64.2805 62.0695 63.3448 62.0695H53.146L51.2746 41.8548C51.181 40.7317 50.6197 39.7024 49.9647 39.0471H53.7075C62.9706 39.1408 70.3623 46.6277 70.4559 55.7991ZM61.2864 65.4386L61.0992 66.7487C60.9121 67.8718 59.8828 68.7141 58.7601 68.7141H53.8011L53.5203 65.4386H61.2864ZM31.6257 20.8913C31.6257 12.5621 38.2689 5.82385 46.5963 5.82385C54.9238 5.82385 61.6606 12.4685 61.6606 20.7976C61.6606 29.1268 55.0173 35.8651 46.6899 35.8651H46.5963C38.3625 35.8652 31.6257 29.2206 31.6257 20.8913ZM8.14025 41.1061H46.7835C47.4384 41.1061 47.9064 41.574 48 42.2292L50.4327 68.8079H11.0409C10.1052 68.8079 9.26311 68.0592 9.16953 67.1234L6.92399 42.4163C6.8304 41.6676 7.57891 41.1061 8.14025 41.1061ZM75.5085 74.7973H4.58486C3.83635 74.7973 3.27501 74.1422 3.27501 73.3935C3.27501 72.6449 3.83635 72.0834 4.58486 72.0834H75.4151C76.1637 72.0834 76.725 72.7385 76.725 73.4872C76.725 74.1422 76.1637 74.7037 75.5085 74.7973Z" fill="#7EBF28"/>
</svg>
