<svg width="32" height="32" viewBox="0 0 32 32" fill="none" xmlns="http://www.w3.org/2000/svg">
<g clip-path="url(#clip0_137_2535)">
<path d="M2.02906 18.0667C2.36408 18.0673 2.69172 17.967 2.97045 17.7786C3.24919 17.5902 3.46648 17.3221 3.59478 17.0083L4.85662 13.9385V19.572L3.96331 30.0107C3.92266 30.4864 4.06701 30.9593 4.36554 31.3286C4.66407 31.6978 5.09314 31.9342 5.56117 31.9872C6.02921 32.0402 6.49914 31.9056 6.87068 31.6122C7.24222 31.3188 7.48593 30.8899 7.54981 30.4168L8.86408 20.6469H8.99337L10.3076 30.4168C10.3715 30.8899 10.6152 31.3188 10.9868 31.6122C11.3583 31.9056 11.8282 32.0402 12.2963 31.9872C12.7643 31.9342 13.1934 31.6978 13.4919 31.3286C13.7904 30.9593 13.9348 30.4864 13.8941 30.0107L13.0008 19.6148V13.9385L14.2627 17.0083C14.4327 17.4306 14.7612 17.767 15.1759 17.9437C15.5906 18.1203 16.0576 18.1227 16.4741 17.9504C16.8905 17.778 17.2224 17.4449 17.3967 17.0245C17.5709 16.6041 17.5733 16.1307 17.4033 15.7085L14.7503 8.98462C14.4878 8.31291 14.0317 7.73699 13.4415 7.33197C12.8513 6.92695 12.1544 6.71163 11.4417 6.7141H10.7545C11.4243 6.30892 11.9445 5.69213 12.2351 4.95837C12.5258 4.22462 12.571 3.41445 12.3637 2.65217C12.1564 1.8899 11.7081 1.21764 11.0876 0.738545C10.4671 0.259452 9.70868 0 8.92872 0C8.14876 0 7.39034 0.259452 6.76985 0.738545C6.14936 1.21764 5.70107 1.8899 5.49378 2.65217C5.28649 3.41445 5.33164 4.22462 5.62231 4.95837C5.91299 5.69213 6.43312 6.30892 7.10289 6.7141H6.41522C5.70256 6.71177 5.00574 6.92714 4.41557 7.33215C3.82541 7.73715 3.36928 8.31299 3.10664 8.98462L0.454178 15.7085C0.351311 15.9694 0.313068 16.2519 0.342793 16.5313C0.372518 16.8106 0.469306 17.0784 0.624693 17.311C0.780079 17.5437 0.989332 17.7342 1.23415 17.866C1.47897 17.9977 1.75189 18.0666 2.02906 18.0667ZM6.38366 3.61793C6.38366 3.10763 6.53293 2.60878 6.81258 2.18448C7.09224 1.76018 7.48972 1.42948 7.95477 1.23419C8.41982 1.03891 8.93155 0.98781 9.42524 1.08737C9.91893 1.18692 10.3724 1.43266 10.7284 1.79349C11.0843 2.15433 11.3267 2.61407 11.4249 3.11457C11.5231 3.61507 11.4727 4.13385 11.2801 4.60531C11.0874 5.07677 10.7612 5.47973 10.3427 5.76324C9.92415 6.04675 9.43209 6.19807 8.92872 6.19807C8.25398 6.19725 7.6071 5.92515 7.12998 5.44146C6.65287 4.95777 6.38447 4.30198 6.38366 3.61793ZM1.39941 16.0919L4.05239 9.36803C4.23988 8.88831 4.5656 8.47698 4.98707 8.18767C5.40855 7.89837 5.90623 7.74451 6.41522 7.74616H11.4422C11.9512 7.74451 12.4489 7.89837 12.8704 8.18767C13.2918 8.47698 13.6176 8.88831 13.8051 9.36803L16.458 16.0919C16.4992 16.1962 16.5146 16.3091 16.5027 16.4209C16.4908 16.5326 16.4521 16.6396 16.39 16.7327C16.3279 16.8257 16.2442 16.9019 16.1463 16.9545C16.0484 17.0072 15.9392 17.0347 15.8284 17.0347C15.6944 17.0348 15.5635 16.9947 15.452 16.9194C15.3406 16.8441 15.2537 16.7369 15.2023 16.6115L12.9626 11.1597C12.9178 11.0489 12.8363 10.9574 12.7322 10.9009C12.6281 10.8443 12.5078 10.8263 12.392 10.8497C12.2762 10.8732 12.172 10.9368 12.0973 11.0296C12.0227 11.1224 11.9822 11.2386 11.9828 11.3584V19.6592L12.8781 30.1C12.8877 30.21 12.8745 30.3209 12.8396 30.4255C12.8046 30.5301 12.7487 30.6262 12.6752 30.7078C12.6017 30.7893 12.5123 30.8545 12.4126 30.8992C12.313 30.9439 12.2053 30.9671 12.0963 30.9674C11.9061 30.9668 11.7225 30.8967 11.5792 30.77C11.4359 30.6433 11.3424 30.4684 11.316 30.2775L9.94166 20.0601C9.92482 19.9368 9.86453 19.8237 9.77192 19.7419C9.6793 19.66 9.5606 19.6149 9.43773 19.6148H8.41971C8.2966 19.6148 8.17766 19.66 8.08491 19.7421C7.99216 19.8241 7.9319 19.9375 7.91528 20.0612L6.54095 30.2785C6.51428 30.4692 6.4208 30.6437 6.27761 30.7702C6.13441 30.8967 5.95107 30.9667 5.76114 30.9674C5.65201 30.9674 5.54407 30.9444 5.44419 30.8998C5.34431 30.8553 5.25466 30.7901 5.18094 30.7086C5.10722 30.627 5.05104 30.5308 5.01598 30.426C4.98092 30.3212 4.96773 30.2102 4.97726 30.1L5.87465 19.6148V11.3584C5.87467 11.2391 5.83393 11.1234 5.75934 11.0312C5.68476 10.9389 5.58094 10.8757 5.46556 10.8523C5.35018 10.8288 5.23036 10.8467 5.12648 10.9027C5.02261 10.9588 4.9411 11.0496 4.89582 11.1597L2.65515 16.6115C2.60379 16.7369 2.51688 16.8441 2.40544 16.9194C2.29399 16.9947 2.163 17.0348 2.02906 17.0347C1.91823 17.0347 1.80908 17.0072 1.71117 16.9545C1.61326 16.9019 1.52957 16.8257 1.46744 16.7327C1.4053 16.6396 1.36661 16.5326 1.35475 16.4209C1.34289 16.3091 1.35823 16.1962 1.39941 16.0919ZM27.7622 23.743C27.1756 23.7433 26.5962 23.8736 26.0646 24.1249C25.9006 23.6708 25.6135 23.2728 25.2363 22.9767C24.8592 22.6806 24.4073 22.4983 23.9325 22.4509C23.4578 22.4035 22.9795 22.4928 22.5526 22.7086C22.1257 22.9244 21.7675 23.2579 21.5191 23.6708L18.8616 28.072C18.5099 28.6558 18.401 29.3571 18.5588 30.0222C18.7165 30.6873 19.128 31.2618 19.703 31.6197C20.101 31.868 20.5591 31.9996 21.0264 32C21.2284 32 21.4297 31.9757 21.626 31.9278C21.9513 31.8493 22.2581 31.7063 22.5285 31.5069C22.7989 31.3075 23.0276 31.0558 23.2014 30.7662L24.0021 29.4405C24.2831 30.1315 24.744 30.732 25.3355 31.1781C25.927 31.6241 26.627 31.8989 27.3606 31.973C28.0942 32.0471 28.8338 31.9177 29.5005 31.5988C30.1672 31.2798 30.7359 30.7832 31.1459 30.162C31.5558 29.5409 31.7916 28.8185 31.828 28.072C31.8645 27.3255 31.7002 26.583 31.3527 25.9239C31.0052 25.2647 30.4876 24.7137 29.8552 24.3295C29.2228 23.9454 28.4994 23.7427 27.7622 23.743ZM22.3341 30.2274C22.2312 30.4046 22.0945 30.5592 21.9321 30.6822C21.7697 30.8052 21.5847 30.8942 21.388 30.944C21.1912 30.9938 20.9867 31.0034 20.7863 30.9721C20.5859 30.9409 20.3936 30.8696 20.2207 30.7622C20.0478 30.6549 19.8977 30.5137 19.7791 30.3469C19.6606 30.1801 19.5761 29.991 19.5304 29.7908C19.4847 29.5905 19.4788 29.383 19.5131 29.1804C19.5474 28.9778 19.6211 28.7841 19.73 28.6107L20.7928 26.8506L23.3974 28.4668L22.3341 30.2274ZM23.9288 27.5869L21.3247 25.9702L22.3875 24.2075C22.4918 24.0332 22.629 23.8815 22.7912 23.7611C22.9535 23.6407 23.1376 23.554 23.333 23.5059C23.5284 23.4578 23.7312 23.4494 23.9299 23.481C24.1285 23.5126 24.319 23.5836 24.4905 23.6901C24.662 23.7965 24.811 23.9362 24.9291 24.1012C25.0472 24.2662 25.132 24.4532 25.1786 24.6515C25.2252 24.8498 25.2327 25.0554 25.2007 25.2567C25.1687 25.4579 25.0978 25.6508 24.9921 25.8242L23.9288 27.5869ZM24.7381 28.2237L25.8605 26.366C26.0687 26.0163 26.191 25.6209 26.2168 25.2132C26.6828 24.9267 27.2172 24.7752 27.7622 24.7751C27.9191 24.7762 28.0756 24.7896 28.2305 24.8153L26.3278 30.6021C25.8918 30.3668 25.5191 30.0272 25.2421 29.6127C24.965 29.1982 24.792 28.7214 24.7381 28.2237ZM27.7622 30.9674C27.6053 30.9662 27.4488 30.953 27.2939 30.9277L29.1971 25.1394C29.7978 25.4643 30.2743 25.9833 30.5508 26.6141C30.8272 27.245 30.8878 27.9513 30.7229 28.6211C30.558 29.2908 30.1771 29.8854 29.6407 30.3106C29.1042 30.7357 28.4431 30.9669 27.7622 30.9674ZM26.9254 20.3089L27.581 21.0984C29.4322 19.5188 31.3253 17.433 31.3253 13.9385C31.3253 10.4166 29.4806 8.36539 27.3707 6.60212C27.1335 6.79202 26.8963 6.97934 26.6622 7.16304L26.5477 7.25335C27.4908 7.98534 28.3297 8.84577 29.0408 9.81027H23.7048C23.4294 10.1314 23.1828 10.4768 22.9678 10.8423H29.6455C30.0251 11.6514 30.2449 12.5279 30.2925 13.4225H22.1839C22.1717 13.5907 22.163 13.761 22.163 13.9385C22.163 14.116 22.1702 14.2868 22.1814 14.4545H30.2899C30.2399 15.3494 30.0183 16.2258 29.6374 17.0347H22.9591C23.175 17.4004 23.4226 17.7458 23.6992 18.0667H29.0439C28.4369 18.9044 27.7248 19.6581 26.9254 20.3089ZM24.0815 5.27799C24.3187 5.0881 24.5559 4.90078 24.7901 4.71707L24.9046 4.62677C23.9619 3.89514 23.1237 3.03466 22.414 2.06985H27.7474C28.0228 1.74867 28.2695 1.40329 28.4845 1.03779H21.8215C21.6602 0.705725 21.5267 0.360489 21.4224 0.00573256H20.3683C20.9317 2.32373 22.4226 3.89246 24.0815 5.27799Z" fill="#5D8A1E"/>
<path d="M23.921 21L24.5492 20.2139C22.8659 18.722 21.3085 16.9218 21.3085 13.8716C21.3085 10.1417 23.5859 8.28286 25.9974 6.31464C28.0474 4.64081 30.1516 2.91714 30.833 0H29.8199C29.1532 2.43163 27.3207 3.93387 25.3994 5.50187C22.9089 7.53534 20.333 9.63817 20.333 13.8716C20.333 17.3508 22.147 19.4274 23.921 21Z" fill="#5D8A1E"/>
</g>
<defs>
<clipPath id="clip0_137_2535">
<rect width="32" height="32" fill="white"/>
</clipPath>
</defs>
</svg>
