<svg width="32" height="32" viewBox="0 0 32 32" fill="none" xmlns="http://www.w3.org/2000/svg">
<g clip-path="url(#clip0_137_2543)">
<path d="M14.0363 4.12312L13.7863 5.65687C13.7469 5.89875 13.8494 6.14187 14.0494 6.28312C14.25 6.42375 14.5138 6.43937 14.7275 6.32L16 5.61688C16 5.61688 17.2725 6.32 17.2725 6.32001C17.7276 6.57411 18.2976 6.17212 18.2138 5.65688L17.9638 4.12313L19.0181 3.0425C19.1856 2.87063 19.2431 2.62 19.1669 2.39251C19.0906 2.16501 18.8937 1.99938 18.6569 1.96313L17.2256 1.74438L16.5794 0.368128C16.4737 0.14313 16.2481 0 16 0C15.7519 0 15.5263 0.143123 15.4206 0.368128L14.7744 1.74438L13.3431 1.96313C13.1063 1.99938 12.9094 2.165 12.8331 2.39251C12.7569 2.62001 12.8144 2.87063 12.9819 3.0425L14.0363 4.12312ZM15.3056 2.95812C15.5163 2.92625 15.6975 2.79062 15.7881 2.5975L16 2.14625L16.2119 2.5975C16.3025 2.79062 16.4838 2.92625 16.6944 2.95812L17.2319 3.04L16.8219 3.46063C16.68 3.60563 16.6156 3.81 16.6481 4.01063L16.7381 4.5625L16.3094 4.32563C16.2131 4.2725 16.1069 4.24563 16 4.24563C15.8931 4.24563 15.7869 4.2725 15.6906 4.32563L15.2619 4.5625L15.3519 4.01063C15.3844 3.81 15.32 3.60563 15.1781 3.46063L14.7681 3.04L15.3056 2.95812ZM7.63629 6.04312L7.38629 7.57687C7.34692 7.81875 7.44942 8.06187 7.64941 8.20312C7.85004 8.34437 8.11379 8.35937 8.32754 8.24L9.60003 7.53688C9.60003 7.53688 10.8681 8.23756 10.8727 8.24007C11.3229 8.48868 11.8962 8.08294 11.8138 7.57688L11.5638 6.04313L12.6181 4.9625C12.7856 4.79063 12.8431 4.54 12.7669 4.31251C12.6906 4.08501 12.4938 3.91938 12.2569 3.88313L10.8256 3.66438L10.1794 2.28813C10.0738 2.06313 9.84815 1.92 9.60003 1.92C9.3519 1.92 9.12628 2.06312 9.02066 2.28813L8.3744 3.66438L6.94316 3.88313C6.70628 3.91938 6.50941 4.085 6.43316 4.31251C6.3569 4.54001 6.4144 4.79063 6.5819 4.9625L7.63629 6.04312ZM8.90566 4.87812C9.11628 4.84625 9.29753 4.71062 9.38816 4.5175L9.60003 4.06625L9.8119 4.5175C9.90253 4.71062 10.0838 4.84625 10.2944 4.87812L10.8319 4.96L10.4219 5.38063C10.28 5.52563 10.2157 5.73 10.2482 5.93063L10.3382 6.4825L9.90941 6.24563C9.81316 6.1925 9.70691 6.16563 9.60003 6.16563C9.49316 6.16563 9.38691 6.1925 9.29066 6.24563L8.86191 6.4825L8.95191 5.93063C8.98441 5.73 8.92003 5.52563 8.77816 5.38063L8.36816 4.96L8.90566 4.87812ZM4.47277 11.4401C4.92871 11.6945 5.49748 11.291 5.41379 10.7769L5.1638 9.24313L6.21817 8.1625C6.38567 7.99063 6.44317 7.74 6.36692 7.51251C6.29067 7.28501 6.09379 7.11938 5.85691 7.08313L4.42567 6.86438L3.77942 5.48813C3.67379 5.26313 3.44817 5.12 3.20005 5.12C2.95193 5.12 2.7263 5.26312 2.62068 5.48813L1.97443 6.86438L0.543179 7.08313C0.306303 7.11938 0.109433 7.28501 0.0331772 7.51251C-0.0430785 7.74001 0.0144252 7.99063 0.181926 8.1625L1.2363 9.24313L0.986301 10.7769C0.946928 11.0188 1.04942 11.2619 1.24942 11.4031C1.44942 11.5438 1.7138 11.5594 1.92755 11.44L3.20004 10.7369C3.20004 10.7369 4.47255 11.44 4.47277 11.4401ZM2.46193 9.6825L2.55193 9.13063C2.58443 8.93 2.52005 8.72563 2.37818 8.58063L1.96819 8.16L2.50568 8.07812C2.7163 8.04625 2.89755 7.91062 2.98818 7.7175L3.20005 7.26625L3.41192 7.7175C3.50255 7.91062 3.6838 8.04625 3.89443 8.07812L4.43192 8.16L4.02193 8.58063C3.88004 8.72563 3.81567 8.93 3.84818 9.13063L3.93818 9.6825L3.50943 9.44562C3.41318 9.3925 3.30693 9.36562 3.20005 9.36562C3.09318 9.36562 2.98693 9.3925 2.89068 9.44562L2.46193 9.6825ZM20.4362 6.04312L20.1862 7.57687C20.1469 7.81875 20.2494 8.06187 20.4494 8.20312C20.65 8.34437 20.9144 8.35937 21.1275 8.24L22.4 7.53688C22.4 7.53688 23.6698 8.23853 23.6726 8.24004C24.1288 8.49208 24.6973 8.09028 24.6137 7.57688L24.3637 6.04313L25.4181 4.9625C25.5856 4.79063 25.6431 4.54 25.5669 4.31251C25.4906 4.08501 25.2937 3.91938 25.0569 3.88313L23.6256 3.66438L22.9794 2.28813C22.8737 2.06313 22.6481 1.92 22.4 1.92C22.1519 1.92 21.9262 2.06312 21.8206 2.28813L21.1744 3.66438L19.7431 3.88313C19.5062 3.91938 19.3094 4.085 19.2331 4.31251C19.1569 4.54001 19.2144 4.79063 19.3819 4.9625L20.4362 6.04312ZM21.7056 4.87812C21.9162 4.84625 22.0975 4.71062 22.1881 4.5175L22.4 4.06625L22.6119 4.5175C22.7025 4.71062 22.8837 4.84625 23.0944 4.87812L23.6319 4.96L23.2219 5.38063C23.08 5.52563 23.0156 5.73 23.0481 5.93063L23.1381 6.4825L22.7094 6.24563C22.6131 6.1925 22.5069 6.16563 22.4 6.16563C22.2931 6.16563 22.1869 6.1925 22.0906 6.24563L21.6619 6.4825L21.7519 5.93063C21.7844 5.73 21.72 5.52563 21.5781 5.38063L21.1681 4.96L21.7056 4.87812ZM31.9668 7.5125C31.8906 7.285 31.6937 7.11937 31.4568 7.08312L30.0256 6.86437L29.3793 5.48812C29.2737 5.26312 29.0481 5.11999 28.8 5.11999C28.5518 5.11999 28.3262 5.26312 28.2206 5.48812L27.5743 6.86437L26.1431 7.08312C25.9062 7.11937 25.7093 7.285 25.6331 7.5125C25.5568 7.74 25.6143 7.99062 25.7818 8.1625L26.8362 9.24312L26.5862 10.7769C26.5468 11.0187 26.6493 11.2619 26.8493 11.4031C27.05 11.5438 27.3143 11.5594 27.5275 11.44L28.8 10.7369C28.8 10.7369 30.0725 11.44 30.0727 11.4401C30.5315 11.6961 31.0978 11.2932 31.0137 10.7769L30.7637 9.24313L31.8181 8.1625C31.9856 7.99063 32.0431 7.73999 31.9668 7.5125ZM29.6218 8.58063C29.48 8.72563 29.4156 8.93 29.4481 9.13063L29.5381 9.6825L29.1093 9.44562C29.0131 9.3925 28.9068 9.36562 28.8 9.36562C28.6931 9.36562 28.5868 9.3925 28.4906 9.44562L28.0618 9.6825L28.1518 9.13063C28.1843 8.93 28.12 8.72563 27.9781 8.58063L27.5681 8.16L28.1056 8.07812C28.3162 8.04625 28.4975 7.91062 28.5881 7.7175L28.8 7.26625L29.0118 7.7175C29.1025 7.91062 29.2837 8.04625 29.4943 8.07812L30.0318 8.16L29.6218 8.58063ZM28.8 12.8H22.4C22.0462 12.8 21.76 13.0863 21.76 13.44C21.76 13.7937 22.0462 14.08 22.4 14.08H28.16V24.96H22.2971C22.1668 24.5177 21.913 24.119 21.54 23.8244C21.2744 23.6144 21.1337 23.2744 21.1731 22.9381C21.2544 22.2463 21.0181 21.5669 20.5256 21.0744C20.0331 20.5819 19.3519 20.345 18.6619 20.4269C18.3244 20.4656 17.9856 20.3256 17.7756 20.06C17.3438 19.5137 16.6969 19.2 16 19.2C15.3031 19.2 14.6563 19.5137 14.2244 20.06C14.0138 20.3256 13.6744 20.4663 13.3381 20.4269C12.6482 20.3456 11.9669 20.5819 11.4744 21.0744C10.9819 21.5669 10.7457 22.2462 10.8269 22.9381C10.8663 23.2744 10.7257 23.6144 10.46 23.8244C10.0874 24.119 9.83355 24.5177 9.70308 24.96H3.84005V14.08H17.28C17.6338 14.08 17.92 13.7937 17.92 13.44C17.92 13.0863 17.6338 12.8 17.28 12.8H3.20005C2.84631 12.8 2.56006 13.0863 2.56006 13.44V25.6C2.56006 25.9537 2.84631 26.24 3.20005 26.24H9.70308C9.83355 26.6823 10.0874 27.081 10.46 27.3756C10.7257 27.5856 10.8663 27.9256 10.8269 28.2619C10.7457 28.9537 10.9819 29.6331 11.4744 30.1256C11.9669 30.6181 12.6475 30.8538 13.3381 30.7731C13.6731 30.7331 14.0138 30.8738 14.2244 31.14C14.6563 31.6863 15.3031 32 16 32C16.6969 32 17.3438 31.6863 17.7756 31.14C17.9856 30.8737 18.3256 30.7337 18.6619 30.7731C19.3525 30.8544 20.0331 30.6181 20.5256 30.1256C21.0181 29.6331 21.2544 28.9538 21.1731 28.2619C21.1337 27.9256 21.2744 27.5856 21.54 27.3756C21.9126 27.081 22.1665 26.6823 22.297 26.24H28.8C29.1537 26.24 29.44 25.9537 29.44 25.6V13.44C29.44 13.0863 29.1537 12.8 28.8 12.8ZM20.7462 26.3719C20.1344 26.855 19.8112 27.6369 19.9019 28.4106C19.9369 28.7113 19.8344 29.0062 19.6206 29.2206C19.4069 29.4337 19.1119 29.5369 18.8106 29.5019C18.04 29.4137 17.2556 29.7344 16.7719 30.3462C16.3956 30.8212 15.6044 30.8212 15.2281 30.3462C14.7988 29.8025 14.1338 29.4869 13.4481 29.4869C13.3619 29.4869 13.2756 29.4919 13.1894 29.5019C12.8919 29.535 12.5931 29.435 12.3794 29.2206C12.1657 29.0063 12.0632 28.7113 12.0982 28.4106C12.1888 27.6369 11.8657 26.855 11.2538 26.3719C11.0163 26.1837 10.88 25.9025 10.88 25.6C10.88 25.2975 11.0163 25.0163 11.2538 24.8281C11.8657 24.345 12.1888 23.5631 12.0982 22.7894C12.0632 22.4888 12.1657 22.1938 12.3794 21.9794C12.5931 21.7656 12.8863 21.6625 13.1894 21.6981C13.9625 21.7875 14.745 21.4663 15.2281 20.8538C15.6044 20.3788 16.3956 20.3788 16.7719 20.8538C17.255 21.4663 18.04 21.7875 18.8106 21.6981C19.1088 21.6638 19.4063 21.7656 19.6206 21.9794C19.8344 22.1938 19.9369 22.4888 19.9019 22.7894C19.8112 23.5631 20.1344 24.345 20.7462 24.8281C20.9837 25.0163 21.12 25.2975 21.12 25.6C21.12 25.9025 20.9837 26.1838 20.7462 26.3719Z" fill="#5D8A1E"/>
<path d="M26.3529 15.5H5.64706C5.28941 15.5 5 15.7796 5 16.1251C5 16.4705 5.28941 16.7501 5.64706 16.7501H26.3529C26.7106 16.7501 27 16.4705 27 16.1251C27 15.7796 26.7106 15.5 26.3529 15.5ZM18.1307 23.8088L15.3529 26.4921L14.5163 25.6839C14.2636 25.4398 13.8541 25.4398 13.6013 25.6839C13.3486 25.9281 13.3486 26.3236 13.6013 26.5678L14.8954 27.8179C15.1476 28.0615 15.5598 28.06 15.8104 27.8179L19.0457 24.6926C19.2985 24.4485 19.2985 24.0529 19.0457 23.8088C18.793 23.5646 18.3835 23.5646 18.1307 23.8088ZM12.7647 18.6253C12.7647 18.2798 12.4753 18.0002 12.1176 18.0002H5.64706C5.28941 18.0002 5 18.2798 5 18.6253C5 18.9707 5.28941 19.2503 5.64706 19.2503H12.1176C12.4753 19.2503 12.7647 18.9707 12.7647 18.6253ZM5.64706 20.5004C5.28941 20.5004 5 20.78 5 21.1255C5 21.4709 5.28941 21.7505 5.64706 21.7505H8.88235C9.24 21.7505 9.52941 21.4709 9.52941 21.1255C9.52941 20.78 9.24 20.5004 8.88235 20.5004H5.64706ZM26.3529 18.0002H19.8824C19.5247 18.0002 19.2353 18.2798 19.2353 18.6253C19.2353 18.9707 19.5247 19.2503 19.8824 19.2503H26.3529C26.7106 19.2503 27 18.9707 27 18.6253C27 18.2798 26.7106 18.0002 26.3529 18.0002ZM26.3529 20.5004H23.1176C22.76 20.5004 22.4706 20.78 22.4706 21.1255C22.4706 21.4709 22.76 21.7505 23.1176 21.7505H26.3529C26.7106 21.7505 27 21.4709 27 21.1255C27 20.78 26.7106 20.5004 26.3529 20.5004Z" fill="#5D8A1E"/>
<path d="M19.75 14C20.1642 14 20.5 13.7761 20.5 13.5C20.5 13.2239 20.1642 13 19.75 13C19.3358 13 19 13.2239 19 13.5C19 13.7761 19.3358 14 19.75 14Z" fill="#5D8A1E"/>
</g>
<defs>
<clipPath id="clip0_137_2543">
<rect width="32" height="32" fill="white"/>
</clipPath>
</defs>
</svg>
