<svg width="81" height="81" viewBox="0 0 81 81" fill="none" xmlns="http://www.w3.org/2000/svg">
<path d="M34.7956 69.1757H34.1488C33.5928 66.9561 33.0494 64.7668 32.5275 62.5508C31.5342 58.3332 30.516 55.6415 24.8607 54.0373L19.3937 50.1107C18.4866 49.4593 17.3775 49.1979 16.2697 49.3758L12.6287 40.7812C10.1633 34.9621 6.95888 35.6412 6.03561 35.9884C3.76228 36.8427 2.42777 39.8546 3.23595 42.3074L7.87708 56.3936C7.92585 56.5418 7.97539 56.6935 8.0257 56.8482C8.78373 59.1748 9.72716 62.0704 11.8982 63.5625L18.2266 67.9116C18.728 68.2562 19.0834 68.6681 19.3196 69.1753H19.1796C18.4851 69.1753 17.8338 69.4442 17.3458 69.9327C16.8575 70.4213 16.589 71.0728 16.5896 71.7676L16.5933 75.6062C16.5947 77.033 17.7566 78.1937 19.1831 78.1937L34.7992 78.1943C35.494 78.1943 36.1454 77.9253 36.6335 77.4366C37.1216 76.9482 37.39 76.2965 37.3894 75.6017L37.3857 71.7634C37.3842 70.3364 36.2225 69.1757 34.7956 69.1757ZM19.4466 66.1362L13.1182 61.7871C11.5489 60.7085 10.7309 58.1981 10.0738 56.1807C10.0238 56.0269 9.97355 55.873 9.92301 55.7193L5.28189 41.633C4.79864 40.1663 5.70914 38.4118 6.79364 38.0043C8.04662 37.5335 9.48668 38.8855 10.6455 41.621L14.2986 50.2438C13.9996 50.4835 13.7348 50.763 13.5115 51.0744C12.1557 52.9619 12.5882 55.6005 14.4758 56.9565L21.9472 62.3231C22.4303 62.6562 23.0913 62.5413 23.4336 62.0647C23.7759 61.5881 23.6738 60.9251 23.2039 60.5736L15.7325 55.2072C14.8095 54.5439 14.598 53.2538 15.2611 52.3309C15.5802 51.8866 16.0563 51.5927 16.6021 51.5032C17.1479 51.4144 17.693 51.5402 18.1374 51.8595L23.7595 55.8975C23.8633 55.9719 23.9795 56.0273 24.1027 56.0612C28.8975 57.3773 29.5391 59.2564 30.4313 63.0439C30.9151 65.0984 31.4164 67.1262 31.9286 69.175L21.6032 69.1744C21.2623 67.9084 20.5382 66.8862 19.4466 66.1362ZM35.1096 75.9143C35.0522 75.9719 34.9518 76.0403 34.7982 76.0403L19.1836 76.0393C18.9431 76.039 18.748 75.844 18.7475 75.6036L18.7438 71.765C18.7418 71.6487 18.7872 71.5365 18.8695 71.4544C18.9517 71.372 19.0637 71.3267 19.18 71.3285L33.3029 71.3293L33.3076 71.3297C33.3097 71.3297 33.3117 71.3294 33.3139 71.3293L34.7958 71.3294C35.0364 71.3297 35.2313 71.5247 35.2318 71.7653L35.2355 75.6036C35.2375 75.7199 35.1921 75.8322 35.1096 75.9143ZM75.9614 35.9881C75.0383 35.6412 71.8341 34.9618 69.3685 40.7809L65.7274 49.3755C64.6187 49.1978 63.5104 49.459 62.6034 50.1104L57.1364 54.037C51.4808 55.6413 50.4627 58.3328 49.4696 62.5505C48.9511 64.7521 48.4065 66.9467 47.8483 69.1754H47.2015C45.7749 69.1754 44.613 70.3362 44.6116 71.763L44.6079 75.6016C44.6073 76.2962 44.8757 76.9479 45.3638 77.4363C45.8519 77.9249 46.5033 78.194 47.1991 78.194L62.8137 78.1929C64.2404 78.1929 65.4023 77.0322 65.4037 75.6056L65.4074 71.767C65.408 71.0722 65.1395 70.4205 64.6512 69.9319C64.1632 69.4434 63.5119 69.1745 62.8176 69.1745H62.6774C62.9137 68.6673 63.269 68.2554 63.7704 67.9108L70.0987 63.5619C72.2695 62.0701 73.2128 59.1748 73.9708 56.8487C74.0213 56.6935 74.0708 56.5415 74.1199 56.3929L78.761 42.3066C79.5694 39.8543 78.2349 36.8426 75.9614 35.9881ZM62.8174 71.3287C62.9337 71.3268 63.0457 71.3722 63.1281 71.4544C63.2102 71.5367 63.2556 71.6488 63.2536 71.7651L63.2499 75.6039C63.2495 75.8445 63.0544 76.0393 62.8137 76.0394L47.1982 76.0405C47.0455 76.0405 46.9449 75.972 46.8875 75.9145C46.8301 75.857 46.7617 75.7565 46.7618 75.6039L46.7655 71.7653C46.766 71.5247 46.9609 71.3299 47.2015 71.3296L48.6834 71.3294C48.6856 71.3294 48.6876 71.3299 48.6897 71.3299L48.6944 71.3294L62.8174 71.3287ZM76.7154 41.633L72.0743 55.7193C72.0247 55.8699 71.9744 56.0244 71.9231 56.1819C71.266 58.1987 70.4481 60.709 68.8789 61.7873L62.5507 66.1364C61.4592 66.8864 60.735 67.9087 60.3944 69.1751L50.0689 69.1757C50.5831 67.1185 51.0852 65.0865 51.5662 63.0447C52.4581 59.2572 53.0996 57.3781 57.8948 56.0619C58.018 56.0281 58.1342 55.9727 58.238 55.8982L63.8601 51.8601C64.3044 51.5412 64.8497 51.4152 65.3954 51.5039C65.9411 51.5935 66.4173 51.8873 66.7364 52.3315C67.3993 53.2546 67.1879 54.5449 66.265 55.2078L58.7936 60.5744C58.3105 60.9215 58.2002 61.5944 58.5471 62.0774C58.8942 62.5604 59.567 62.6707 60.0502 62.3239L67.5216 56.9572C69.4091 55.6015 69.8416 52.9627 68.486 51.0752C68.2626 50.7638 67.9978 50.4842 67.6989 50.2446L71.352 41.6218C72.5109 38.8863 73.9513 37.5343 75.2038 38.0051C76.2882 38.4118 77.1987 40.1664 76.7154 41.633ZM45.777 47.1966C54.2215 47.1966 59.5982 43.231 62.759 39.5755C66.7794 34.9258 68.1067 29.8905 68.1612 29.6783C68.2335 29.3977 68.1895 29.0998 68.0393 28.852C67.8892 28.6042 67.6455 28.4274 67.3633 28.3615C66.9059 28.2546 56.0719 25.8069 47.9771 31.3334C45.3796 33.1068 43.3741 35.4944 41.9742 38.4681L41.9744 30.54C42.2439 30.1197 42.5155 29.7006 42.7887 29.2828C45.0798 25.7692 47.6763 21.7869 47.9346 17.3962C48.2233 12.489 45.641 6.36267 41.6548 2.49806C41.2371 2.09309 40.5732 2.09309 40.1555 2.49806C36.0278 6.49928 33.5043 12.4936 33.8759 17.4137C34.2427 22.2679 37.6005 27.2429 39.6067 30.2154L39.8204 30.5323L39.8203 38.0497C38.4322 35.2695 36.4945 33.0228 34.0199 31.3332C25.9246 25.8063 15.0908 28.2543 14.6337 28.3614C14.3515 28.4272 14.1077 28.604 13.9576 28.8518C13.8074 29.0997 13.7635 29.3975 13.8358 29.6781C13.8902 29.8901 15.2175 34.9255 19.2379 39.5754C22.3988 43.231 27.7742 47.1964 36.2198 47.1964C37.3625 47.1964 38.5625 47.1232 39.82 46.9673L39.8198 56.0819C39.8198 56.6767 40.302 57.1589 40.8968 57.1589C41.4916 57.1589 41.9738 56.6767 41.9738 56.0819L41.9739 46.941C43.3057 47.1147 44.5728 47.1966 45.777 47.1966ZM49.1813 33.1195C55.0399 29.1128 62.8182 29.8071 65.7191 30.2509C65.1281 31.904 63.743 35.1446 61.1297 38.167C56.6789 43.3146 50.7535 45.5861 43.4906 44.9418L54.6577 38.4952C54.9937 38.3043 55.2016 37.9478 55.2025 37.5614C55.2033 37.1749 54.9971 36.8175 54.6619 36.6251C54.3268 36.4326 53.9141 36.4344 53.5807 36.63L42.6515 42.9392C43.7903 38.6058 45.9789 35.3098 49.1813 33.1195ZM36.0241 17.2517C35.7206 13.2347 37.658 8.36128 40.9036 4.81821C44.0432 8.27882 46.0212 13.2534 45.7849 17.27C45.5942 20.5088 43.8182 23.6811 41.975 26.576L41.9752 16.7433C41.9752 16.1485 41.493 15.6663 40.8982 15.6663C40.3034 15.6663 39.8212 16.1485 39.8212 16.7433L39.8211 26.6242C38.1165 23.9239 36.2677 20.4766 36.0241 17.2517ZM20.9193 38.2266C18.2823 35.1984 16.8775 31.9164 16.2796 30.2491C19.1771 29.8026 26.9356 29.1048 32.8055 33.1124C36.0438 35.3235 38.2451 38.6647 39.3758 43.0629L28.232 36.6289C27.8986 36.4334 27.4859 36.4315 27.1508 36.624C26.8156 36.8164 26.6094 37.1738 26.6102 37.5603C26.6111 37.9467 26.819 38.3032 27.155 38.4941L38.3481 44.9566C31.1873 45.5516 25.3324 43.2943 20.9193 38.2266Z" fill="#7EBF28" stroke="#7EBF28"/>
</svg>
