<svg width="81" height="81" viewBox="0 0 81 81" fill="none" xmlns="http://www.w3.org/2000/svg">
<path d="M22.2051 34.043H65.9985C67.3398 34.043 68.427 35.1303 68.427 36.4715V51.0425C68.427 52.3838 67.3396 53.471 65.9985 53.471H14.9998C13.6585 53.471 12.5713 52.3837 12.5713 51.0425V36.4715C12.5713 35.1302 13.6586 34.043 14.9998 34.043H17.3481" stroke="#7EBF28" stroke-width="2.5" stroke-linecap="round" stroke-linejoin="round"/>
<path d="M12.5711 38.9004H5.20747C3.52037 38.9004 2.34726 40.5784 2.92668 42.1629L5.28565 48.6145L2.92668 55.0661C2.34726 56.6506 3.52037 58.3286 5.20747 58.3286H14.9996C16.3409 58.3286 17.4281 57.2413 17.4281 55.9001V53.4716M68.4269 38.9004H75.7906C77.4777 38.9004 78.6508 40.5784 78.0714 42.1629L75.7124 48.6145L78.0714 55.0661C78.6508 56.6506 77.4777 58.3286 75.7906 58.3286H65.9984C64.6571 58.3286 63.57 57.2413 63.57 55.9001V53.4716M41.9827 47.2969V40.165L46.8045 47.1472C46.8939 47.2764 46.9897 47.2131 46.9897 47.056L46.9229 40.1517M19.5229 47.241L20.7788 40.283C20.8102 40.1201 21.0374 40.1048 21.0902 40.262L23.1332 47.1867C23.1827 47.3342 23.3917 47.3332 23.4396 47.1851L25.4129 40.2632C25.464 40.1055 25.6914 40.1183 25.7245 40.2809L27.0548 47.241M54.3327 40.1843H51.3495V47.2642H54.3327M54.1127 43.7243H51.3495M58.3566 40.1518L60.6389 43.647M60.6389 43.647L62.9023 40.1699M60.6389 43.647L60.6299 47.2969" stroke="#7EBF28" stroke-width="2.5" stroke-linecap="round" stroke-linejoin="round"/>
<path d="M37.8151 43.724C37.8151 45.6971 36.2156 47.2966 34.2425 47.2966C32.2694 47.2966 30.6699 45.6971 30.6699 43.724C30.6699 41.7509 32.2694 40.1514 34.2425 40.1514C36.2156 40.1514 37.8151 41.7509 37.8151 43.724Z" stroke="#7EBF28" stroke-width="2.5" stroke-linecap="round" stroke-linejoin="round"/>
<path d="M33.1391 65.9936L35.8176 58.9609C35.8724 58.827 36.0616 58.8268 36.1167 58.9606L38.771 65.9936M33.9744 64.6372H37.949M51.6885 58.8604V65.9936M55.5257 58.9504L51.9168 62.2677L55.7789 65.9936M29.0373 60.6199C29.0373 61.5915 28.2496 62.3794 27.2778 62.3794C26.7958 62.3794 25.0566 62.3871 25.0566 62.3871V58.8604H27.2778C28.2494 58.8604 29.0373 59.6482 29.0373 60.6199Z" stroke="#7EBF28" stroke-width="2.5" stroke-linecap="round" stroke-linejoin="round"/>
<path d="M47.453 59.47C46.8642 59.072 46.1695 58.8598 45.4588 58.8609C43.4891 58.8609 41.8923 60.4576 41.8923 62.4274C41.8923 64.3971 43.4891 65.9939 45.4588 65.9939C46.2588 65.9939 46.9168 65.7306 47.4163 65.2858C47.5199 65.1933 47.6166 65.0936 47.7057 64.9872M16.3628 14.8975H19.3177V28.7221M60.2711 15.2217L54.8576 28.1209M29.3538 64.183C29.3538 65.1788 28.5465 65.9862 27.5506 65.9862C27.0568 65.9862 25.0576 65.9941 25.0576 65.9941V62.3797H27.5506C28.5464 62.3799 29.3538 63.1872 29.3538 64.183Z" stroke="#7EBF28" stroke-width="2.5" stroke-linecap="round" stroke-linejoin="round"/>
<path d="M55.0361 17.3997C55.0361 18.9349 53.9651 20.1793 52.644 20.1793C51.3229 20.1793 50.252 18.9349 50.252 17.3997C50.252 15.8646 51.3229 14.6201 52.644 14.6201C53.9651 14.6201 55.0361 15.8646 55.0361 17.3997Z" stroke="#7EBF28" stroke-width="2.5" stroke-linecap="round" stroke-linejoin="round"/>
<path d="M64.6998 26.2191C64.6998 27.7542 63.6289 28.9987 62.3079 28.9987C60.987 28.9987 59.916 27.7542 59.916 26.2191C59.916 24.6839 60.987 23.4395 62.3079 23.4395C63.6289 23.4395 64.6998 24.6839 64.6998 26.2191Z" stroke="#7EBF28" stroke-width="2.5" stroke-linecap="round" stroke-linejoin="round"/>
<path d="M32.3755 25.0064C32.3755 27.2143 30.5856 29.0042 28.3777 29.0042C26.1698 29.0042 24.3799 27.2143 24.3799 25.0064V18.613C24.3799 16.4051 26.1698 14.6152 28.3777 14.6152C30.5856 14.6152 32.3755 16.4051 32.3755 18.613V25.0064ZM45.3818 25.0064C45.3818 27.2143 43.5919 29.0042 41.384 29.0042C39.1761 29.0042 37.3862 27.2143 37.3862 25.0064V18.613C37.3862 16.4051 39.1761 14.6152 41.384 14.6152C43.5919 14.6152 45.3818 16.4051 45.3818 18.613V25.0064Z" stroke="#7EBF28" stroke-width="2.5" stroke-linecap="round" stroke-linejoin="round"/>
</svg>
