<svg width="96" height="97" viewBox="0 0 96 97" fill="none" xmlns="http://www.w3.org/2000/svg">
<path d="M86.2395 43.1546L80.7995 36.8346C79.7595 35.6346 78.9195 33.3946 78.9195 31.7946V24.9946C78.9195 20.7546 75.4395 17.2746 71.1995 17.2746H64.3995C62.8395 17.2746 60.5595 16.4346 59.3595 15.3946L53.0395 9.95457C50.2795 7.59457 45.7595 7.59457 42.9595 9.95457L36.6795 15.4346C35.4795 16.4346 33.1995 17.2746 31.6395 17.2746H24.7195C20.4795 17.2746 16.9995 20.7546 16.9995 24.9946V31.8346C16.9995 33.3946 16.1595 35.6346 15.1595 36.8346L9.75953 43.1946C7.43953 45.9546 7.43953 50.4346 9.75953 53.1946L15.1595 59.5546C16.1595 60.7546 16.9995 62.9946 16.9995 64.5546V71.3946C16.9995 75.6346 20.4795 79.1146 24.7195 79.1146H31.6395C33.1995 79.1146 35.4795 79.9546 36.6795 80.9946L42.9995 86.4346C45.7595 88.7946 50.2795 88.7946 53.0795 86.4346L59.3995 80.9946C60.5995 79.9546 62.8395 79.1146 64.4395 79.1146H71.2395C75.4795 79.1146 78.9595 75.6346 78.9595 71.3946V64.5946C78.9595 63.0346 79.7995 60.7546 80.8395 59.5546L86.2795 53.2346C88.5995 50.4746 88.5995 45.9146 86.2395 43.1546ZM64.6395 40.6346L45.3195 59.9546C44.7595 60.5146 43.9995 60.8346 43.1995 60.8346C42.3995 60.8346 41.6395 60.5146 41.0795 59.9546L31.3995 50.2746C30.2395 49.1146 30.2395 47.1946 31.3995 46.0346C32.5595 44.8746 34.4795 44.8746 35.6395 46.0346L43.1995 53.5946L60.3995 36.3946C61.5595 35.2346 63.4795 35.2346 64.6395 36.3946C65.7995 37.5546 65.7995 39.4746 64.6395 40.6346Z" fill="#7EBF28"/>
</svg>
