<svg width="512" height="512" viewBox="0 0 512 512" fill="none" xmlns="http://www.w3.org/2000/svg">
<rect x="0.5" y="0.5" width="511" height="511" fill="#F2F2F2" stroke="#DFDFDF"/>
<g opacity="0.3">
<path d="M176.77 242.506C176.77 260.305 176.77 278.104 176.77 295.902C176.77 298.588 177.083 298.293 174.443 298.298C166.388 298.311 158.334 298.311 150.282 298.298C148.021 298.298 148.234 298.411 148.234 296.281C148.234 282.833 148.234 269.392 148.234 255.956C148.234 253.553 148.677 253.54 145.886 253.54C135.247 253.54 124.607 253.54 113.967 253.54C113.821 253.54 113.672 253.54 113.524 253.54C111.633 253.569 111.615 253.569 111.615 255.524C111.615 268.971 111.615 282.413 111.615 295.849C111.615 298.619 111.941 298.287 109.113 298.287C100.985 298.3 92.8577 298.3 84.7301 298.287C83.0721 298.287 83.0455 298.26 83.0455 296.593C83.0366 286.18 83.0366 275.767 83.0455 265.355C83.0455 239.876 83.0455 214.396 83.0455 188.915C83.0455 185.954 82.6399 186.406 85.6633 186.397C93.7185 186.375 101.772 186.375 109.824 186.397C111.598 186.397 111.615 186.419 111.615 188.21C111.615 200.623 111.615 213.03 111.615 225.431C111.643 225.948 111.643 226.466 111.615 226.983C111.48 228.189 112.059 228.464 113.167 228.462C124.325 228.43 135.484 228.448 146.638 228.437C148.22 228.437 148.245 228.395 148.245 226.624C148.254 214.291 148.254 201.958 148.245 189.624C148.245 189.108 148.245 188.589 148.245 188.073C148.271 186.424 148.274 186.399 149.952 186.399C158.227 186.389 166.502 186.389 174.777 186.399C176.952 186.399 176.772 186.213 176.772 188.443C176.772 206.465 176.772 224.486 176.77 242.506Z" fill="#171717"/>
<path d="M363.381 292.038V324.148C363.357 324.591 363.357 325.035 363.381 325.478C363.501 326.564 363.191 327.08 361.952 327.009C360.11 326.903 358.259 326.981 356.41 326.981H340.229C338.105 326.981 338.234 327.147 338.234 324.906V324.463C338.234 288.885 338.234 253.307 338.234 217.729C338.234 214.772 337.955 215.104 340.812 215.1C347.239 215.088 353.667 215.088 360.096 215.1C361.87 215.1 361.883 215.129 361.892 216.948C361.905 219.285 361.892 221.621 361.892 223.864C362.453 224.15 362.612 223.815 362.779 223.62C368.493 216.838 375.832 213.127 384.612 212.38C395.733 211.438 405.891 213.932 414.452 221.437C420.554 226.792 424.473 233.58 426.843 241.267C430.744 253.928 430.631 266.47 424.877 278.577C419.3 290.314 410.225 298.023 397.406 300.944C390.9 302.449 384.117 302.274 377.696 300.437C373.059 299.134 368.802 296.737 365.283 293.448C364.78 292.971 364.39 292.304 363.381 292.038ZM404.3 256.818C404.229 254.602 403.939 252.399 403.192 250.297C400.346 242.255 394.953 237.064 386.321 235.907C378.213 234.819 371.37 237.388 366.571 244.159C361.723 251 360.883 258.516 364.355 266.19C367.733 273.676 373.713 277.814 381.968 278.362C395.179 279.242 404.329 268.826 404.3 256.818Z" fill="#171717"/>
<path d="M289.385 212.331C300.246 212.413 309.556 214.785 317.669 220.87C327.021 227.89 332.662 237.315 334.584 248.757C337.399 265.521 332.544 279.876 319.843 291.284C313.103 297.342 304.903 300.304 295.931 301.259C288.248 302.084 280.702 301.481 273.454 298.792C259.224 293.523 250.242 283.22 246.553 268.713C242.071 251.08 246.602 235.665 259.897 223.146C266.798 216.649 275.358 213.548 284.723 212.608C286.565 212.433 288.405 212.391 289.385 212.331ZM310.221 257.175C310.231 255.332 310.038 253.493 309.645 251.691C307.41 242.28 299.659 236.581 291.856 235.905C283.655 235.198 275.591 239.839 272.049 247.639C269.934 252.294 269.564 257.171 270.648 262.127C273.27 274.155 285.721 281.086 297.026 276.843C304.994 273.858 310.121 266.215 310.23 257.178L310.221 257.175Z" fill="#171717"/>
<path d="M216.543 242.193C216.543 224.396 216.543 206.597 216.543 188.798C216.543 186.138 216.195 186.408 218.868 186.404C225.739 186.392 232.611 186.392 239.482 186.404C242.025 186.404 241.732 186.248 241.732 188.669C241.732 216.069 241.732 243.469 241.732 270.867C241.732 279.361 241.732 287.855 241.732 296.347C241.732 298.287 241.719 298.309 239.839 298.311C232.746 298.311 225.653 298.311 218.56 298.311C216.146 298.311 216.538 298.183 216.538 296.252C216.538 278.235 216.54 260.216 216.543 242.193Z" fill="#171717"/>
<path d="M184.617 256.473V216.826C184.617 216.308 184.637 215.791 184.617 215.275C184.595 214.623 184.894 214.355 185.539 214.355C193.296 214.355 201.054 214.355 208.813 214.355C209.585 214.355 209.877 214.683 209.826 215.423C209.795 215.867 209.826 216.31 209.826 216.753C209.826 243.11 209.826 269.468 209.826 295.826C209.826 298.46 210.319 298.311 207.355 298.313C200.483 298.313 193.612 298.313 186.74 298.313C184.2 298.313 184.637 298.247 184.635 296.121C184.613 282.906 184.607 269.69 184.617 256.473Z" fill="#171717"/>
<path d="M197.48 186.397C201.098 186.397 204.717 186.43 208.341 186.377C209.494 186.359 209.864 186.758 209.853 187.909C209.804 193.293 209.813 198.681 209.853 204.068C209.853 205.083 209.585 205.513 208.488 205.509C200.951 205.473 193.42 205.473 185.894 205.509C184.923 205.509 184.613 205.145 184.617 204.21C184.644 198.748 184.666 193.288 184.604 187.829C184.59 186.57 185.147 186.377 186.197 186.386C189.948 186.417 193.714 186.397 197.48 186.397Z" fill="#7EBF28"/>
</g>
</svg>
