<svg width="64" height="64" viewBox="0 0 64 64" fill="none" xmlns="http://www.w3.org/2000/svg">
<path d="M57.9936 32.0905C57.9936 41.9498 57.9936 51.8087 57.9936 61.6672C57.9936 63.1553 58.167 62.992 56.7028 62.9945C52.235 63.0018 47.7681 63.0018 43.3021 62.9945C42.0481 62.9945 42.1661 63.0571 42.1661 61.8772C42.1661 54.4285 42.1661 46.983 42.1661 39.5409C42.1661 38.2099 42.412 38.2026 40.8641 38.2026C34.9629 38.2026 29.0617 38.2026 23.1605 38.2026C23.0793 38.2026 22.997 38.2026 22.9146 38.2026C21.8659 38.2185 21.8561 38.2185 21.8561 39.3015C21.8561 46.7502 21.8561 54.1956 21.8561 61.6377C21.8561 63.1725 22.0368 62.9883 20.4681 62.9883C15.9602 62.9957 11.4523 62.9957 6.94443 62.9883C6.02482 62.9883 6.01007 62.9736 6.01007 62.0503C6.00515 56.282 6.00515 50.5142 6.01007 44.7468C6.01007 30.6335 6.01007 16.5199 6.01007 2.40582C6.01007 0.765468 5.78509 1.01594 7.46201 1.01103C11.9297 0.998753 16.3966 0.998753 20.8627 1.01103C21.8462 1.01103 21.8561 1.02331 21.8561 2.01538C21.8561 8.8911 21.8561 15.7636 21.8561 22.6327C21.8714 22.919 21.8714 23.2059 21.8561 23.4922C21.7811 24.1601 22.102 24.3124 22.7167 24.3111C28.9056 24.294 35.0945 24.3038 41.2809 24.2976C42.1587 24.2976 42.1722 24.2743 42.1722 23.2933C42.1772 16.4618 42.1772 9.63024 42.1722 2.79872C42.1722 2.51264 42.1722 2.22533 42.1722 1.93925C42.187 1.02576 42.1882 1.01226 43.1189 1.01226C47.7087 1.00653 52.2986 1.00653 56.8884 1.01226C58.0945 1.01226 57.9949 0.909124 57.9949 2.1443C57.9949 12.1272 57.9945 22.1093 57.9936 32.0905Z" fill="black"/>
</svg>
