<svg width="32" height="32" viewBox="0 0 32 32" fill="none" xmlns="http://www.w3.org/2000/svg">
<path d="M29.9966 16.0467C29.9966 21.1354 29.9966 26.2239 29.9966 31.3121C29.9966 32.0802 30.0899 31.9959 29.3015 31.9971C26.8958 32.0009 24.4905 32.0009 22.0857 31.9971C21.4105 31.9971 21.474 32.0295 21.474 31.4205C21.474 27.576 21.474 23.7332 21.474 19.8921C21.474 19.2051 21.6065 19.2013 20.773 19.2013C17.5954 19.2013 14.4178 19.2013 11.2403 19.2013C11.1966 19.2013 11.1522 19.2013 11.1079 19.2013C10.5432 19.2096 10.5379 19.2096 10.5379 19.7685C10.5379 23.613 10.5379 27.4558 10.5379 31.2969C10.5379 32.089 10.6352 31.994 9.79049 31.994C7.36317 31.9978 4.93586 31.9978 2.50854 31.994C2.01337 31.994 2.00542 31.9864 2.00542 31.5098C2.00277 28.5327 2.00277 25.5557 2.00542 22.579C2.00542 15.2947 2.00542 8.01026 2.00542 0.725584C2.00542 -0.121049 1.88428 0.00822824 2.78724 0.00569342C5.19293 -0.000643659 7.59818 -0.000643659 10.003 0.00569342C10.5326 0.00569342 10.5379 0.01203 10.5379 0.524066C10.5379 4.07283 10.5379 7.6199 10.5379 11.1653C10.5462 11.313 10.5462 11.4611 10.5379 11.6089C10.4975 11.9536 10.6703 12.0322 11.0013 12.0316C14.3338 12.0227 17.6663 12.0278 20.9974 12.0246C21.4701 12.0246 21.4774 12.0125 21.4774 11.5062C21.48 7.98027 21.48 4.45432 21.4774 0.928371C21.4774 0.780717 21.4774 0.63243 21.4774 0.484776C21.4853 0.0132977 21.486 0.00632677 21.9871 0.00632677C24.4585 0.00336947 26.93 0.00336947 29.4014 0.00632677C30.0509 0.00632677 29.9972 -0.0469036 29.9972 0.590606C29.9972 5.74307 29.997 10.8951 29.9966 16.0467Z" fill="#24292E"/>
</svg>
