<svg width="100" height="41" viewBox="0 0 100 41" fill="none" xmlns="http://www.w3.org/2000/svg">
<path d="M27.1699 16.1736C27.1699 21.3024 27.1699 26.431 27.1699 31.5594C27.1699 32.3335 27.2599 32.2485 26.4992 32.2498C24.1782 32.2536 21.8575 32.2536 19.5373 32.2498C18.8858 32.2498 18.9472 32.2824 18.9472 31.6686C18.9472 27.7938 18.9472 23.9206 18.9472 20.0492C18.9472 19.3569 19.0749 19.353 18.2708 19.353C15.205 19.353 12.1392 19.353 9.07339 19.353C9.03124 19.353 8.98844 19.353 8.94565 19.353C8.40083 19.3613 8.39572 19.3613 8.39572 19.9247C8.39572 23.7995 8.39572 27.6726 8.39572 31.544C8.39572 32.3424 8.48961 32.2466 7.67462 32.2466C5.3327 32.2504 2.99078 32.2504 0.648852 32.2466C0.171099 32.2466 0.163435 32.2389 0.163435 31.7586C0.16088 28.758 0.16088 25.7576 0.163435 22.7573C0.163435 15.4156 0.163435 8.0737 0.163435 0.731552C0.163435 -0.12176 0.0465511 0.00853729 0.917747 0.00598247C3.23881 -0.000404596 5.55944 -0.000404596 7.87965 0.00598247C8.39061 0.00598247 8.39572 0.0123691 8.39572 0.528444C8.39572 4.1052 8.39572 7.68025 8.39572 11.2536C8.40371 11.4025 8.40371 11.5518 8.39572 11.7007C8.35676 12.0482 8.52346 12.1274 8.84282 12.1267C12.0581 12.1178 15.2733 12.1229 18.4873 12.1197C18.9433 12.1197 18.9503 12.1076 18.9503 11.5972C18.9529 8.04347 18.9529 4.4897 18.9503 0.935939C18.9503 0.78712 18.9503 0.637663 18.9503 0.488844C18.958 0.0136468 18.9586 0.00662082 19.4422 0.00662082C21.8267 0.00364019 24.2112 0.00364019 26.5957 0.00662082C27.2222 0.00662082 27.1705 -0.0470295 27.1705 0.595509C27.1705 5.78862 27.1703 10.9813 27.1699 16.1736Z" fill="white"/>
<path d="M80.9416 30.446V39.6983C80.9346 39.826 80.9346 39.9539 80.9416 40.0815C80.9761 40.3945 80.8867 40.5433 80.5297 40.5229C79.9989 40.4922 79.4656 40.5146 78.9329 40.5146H74.2703C73.6585 40.5146 73.6955 40.5625 73.6955 39.9168V39.789C73.6955 29.5373 73.6955 19.2857 73.6955 9.03401C73.6955 8.18198 73.615 8.27778 74.4383 8.27651C76.2902 8.2731 78.1424 8.2731 79.9951 8.27651C80.506 8.27651 80.5099 8.28481 80.5124 8.80919C80.5163 9.48238 80.5124 10.1556 80.5124 10.802C80.674 10.8843 80.72 10.7879 80.7679 10.7317C82.4145 8.77725 84.5293 7.70806 87.0592 7.49281C90.2636 7.22136 93.1907 7.93991 95.6574 10.1026C97.4158 11.6457 98.545 13.6014 99.2278 15.8164C100.352 19.4647 100.319 23.0785 98.6613 26.5671C97.0543 29.9491 94.4394 32.1705 90.7458 33.0123C88.8709 33.4458 86.9165 33.3955 85.0664 32.8661C83.7302 32.4907 82.5036 31.8001 81.4896 30.8522C81.3447 30.7149 81.2323 30.5227 80.9416 30.446ZM92.7322 20.2976C92.7117 19.6589 92.6281 19.024 92.4128 18.4185C91.5927 16.1013 90.0387 14.6054 87.5516 14.272C85.2152 13.9584 83.2435 14.6987 81.8607 16.65C80.4639 18.621 80.2218 20.7869 81.222 22.9981C82.1954 25.155 83.9187 26.3474 86.2972 26.5052C90.1039 26.7588 92.7405 23.7575 92.7322 20.2976Z" fill="white"/>
<path d="M59.6194 7.47876C62.7491 7.50239 65.4317 8.18581 67.7693 9.93906C70.464 11.9618 72.0895 14.6776 72.6433 17.9746C73.4545 22.8052 72.0557 26.9414 68.3959 30.2288C66.4536 31.9744 64.091 32.8277 61.5055 33.103C59.2918 33.3406 57.1176 33.1669 55.029 32.3921C50.9286 30.8739 48.3405 27.9052 47.2777 23.7249C45.9862 18.644 47.2918 14.2024 51.1227 10.595C53.111 8.72296 55.5777 7.82941 58.2762 7.5586C58.807 7.50814 59.3371 7.496 59.6194 7.47876ZM65.6233 20.4004C65.6262 19.8692 65.5705 19.3393 65.4572 18.8203C64.8134 16.1083 62.5798 14.4662 60.3316 14.2714C57.9684 14.0677 55.6448 15.4051 54.6241 17.6527C54.0148 18.994 53.9081 20.3992 54.2204 21.8273C54.976 25.2929 58.5636 27.2902 61.8211 26.0677C64.1172 25.2073 65.5945 23.0051 65.6258 20.4011L65.6233 20.4004Z" fill="white"/>
<path d="M38.6311 16.0834C38.6311 10.955 38.6311 5.82642 38.6311 0.697606C38.6311 -0.0688417 38.5309 0.00908126 39.3011 0.00780385C41.2811 0.00439741 43.2611 0.00439741 45.2411 0.00780385C45.9737 0.00780385 45.8894 -0.0369055 45.8894 0.660562C45.8894 8.55583 45.8894 16.4509 45.8894 24.3457C45.8894 26.7932 45.8894 29.2406 45.8894 31.6877C45.8894 32.2465 45.8856 32.2529 45.3439 32.2535C43.3001 32.2535 41.2562 32.2535 39.2124 32.2535C38.5168 32.2535 38.6299 32.2165 38.6299 31.6602C38.6299 26.4688 38.6303 21.2765 38.6311 16.0834Z" fill="white"/>
<path d="M29.4305 20.198V8.77405C29.4305 8.62459 29.4362 8.47577 29.4305 8.32695C29.4241 8.13917 29.5103 8.06189 29.6962 8.06189C31.9312 8.06189 34.1667 8.06189 36.4026 8.06189C36.6249 8.06189 36.7092 8.15642 36.6945 8.36975C36.6856 8.49749 36.6945 8.62523 36.6945 8.75297C36.6945 16.3476 36.6945 23.9425 36.6945 31.5375C36.6945 32.2963 36.8363 32.2535 35.9823 32.2542C34.0023 32.2542 32.0224 32.2542 30.0424 32.2542C29.3104 32.2542 29.4362 32.235 29.4356 31.6225C29.4292 27.8145 29.4275 24.0063 29.4305 20.198Z" fill="white"/>
<path d="M33.138 0.00591028C34.1804 0.00591028 35.2234 0.0154911 36.2677 0.000162156C36.5998 -0.0049475 36.7065 0.11002 36.7033 0.441509C36.6893 1.99293 36.6918 3.54562 36.7033 5.09768C36.7033 5.39021 36.626 5.51412 36.3099 5.51284C34.1383 5.50262 31.9682 5.50262 29.7995 5.51284C29.5198 5.51284 29.4304 5.40809 29.4316 5.13856C29.4393 3.56478 29.4457 1.99165 29.4278 0.418515C29.424 0.0557298 29.5843 0.000161728 29.887 0.00271655C30.9677 0.0116584 32.0529 0.00591028 33.138 0.00591028Z" fill="white"/>
</svg>
