<svg width="100" height="40" viewBox="0 0 100 40" fill="none" xmlns="http://www.w3.org/2000/svg">
<g clip-path="url(#clip0_317_1189)">
<path d="M27.1703 16.1733C27.1703 21.3021 27.1703 26.4307 27.1703 31.5591C27.1703 32.3332 27.2604 32.2483 26.4997 32.2496C24.1786 32.2534 21.858 32.2534 19.5378 32.2496C18.8863 32.2496 18.9476 32.2821 18.9476 31.6683C18.9476 27.7935 18.9476 23.9204 18.9476 20.049C18.9476 19.3566 19.0754 19.3528 18.2713 19.3528C15.2055 19.3528 12.1397 19.3528 9.07388 19.3528C9.03172 19.3528 8.98893 19.3528 8.94614 19.3528C8.40132 19.3611 8.39621 19.3611 8.39621 19.9244C8.39621 23.7993 8.39621 27.6724 8.39621 31.5438C8.39621 32.3422 8.4901 32.2464 7.67511 32.2464C5.33319 32.2502 2.99126 32.2502 0.64934 32.2464C0.171588 32.2464 0.163923 32.2387 0.163923 31.7584C0.161368 28.7577 0.161368 25.7573 0.163923 22.7571C0.163923 15.4154 0.163923 8.07345 0.163923 0.731308C0.163923 -0.122004 0.0470394 0.00829315 0.918235 0.00573833C3.23929 -0.000648737 5.55993 -0.000648737 7.88014 0.00573833C8.3911 0.00573833 8.39621 0.0121249 8.39621 0.5282C8.39621 4.10496 8.39621 7.68001 8.39621 11.2534C8.4042 11.4023 8.4042 11.5515 8.39621 11.7005C8.35725 12.0479 8.52395 12.1271 8.84331 12.1265C12.0586 12.1175 15.2738 12.1226 18.4878 12.1194C18.9438 12.1194 18.9508 12.1073 18.9508 11.597C18.9534 8.04322 18.9534 4.48946 18.9508 0.935695C18.9508 0.786876 18.9508 0.637419 18.9508 0.4886C18.9585 0.0134026 18.9591 0.00637668 19.4426 0.00637668C21.8271 0.00339605 24.2116 0.00339605 26.5962 0.00637668C27.2227 0.00637668 27.171 -0.0472736 27.171 0.595265C27.171 5.78837 27.1708 10.9811 27.1703 16.1733Z" fill="#7EBF28"/>
<path d="M80.9416 30.4464V39.6987C80.9346 39.8263 80.9346 39.9543 80.9416 40.0819C80.9761 40.3949 80.8867 40.5437 80.5297 40.5233C79.9989 40.4926 79.4656 40.5149 78.9329 40.5149H74.2703C73.6585 40.5149 73.6955 40.5629 73.6955 39.9171V39.7894C73.6955 29.5377 73.6955 19.286 73.6955 9.03438C73.6955 8.18235 73.615 8.27815 74.4383 8.27687C76.2902 8.27347 78.1424 8.27347 79.9951 8.27687C80.506 8.27687 80.5099 8.28518 80.5124 8.80955C80.5163 9.48275 80.5124 10.1559 80.5124 10.8023C80.674 10.8847 80.72 10.7883 80.7679 10.7321C82.4145 8.77762 84.5293 7.70842 87.0592 7.49318C90.2636 7.22173 93.1908 7.94027 95.6574 10.1029C97.4158 11.646 98.545 13.6018 99.2278 15.8168C100.352 19.4651 100.319 23.0789 98.6613 26.5675C97.0543 29.9495 94.4394 32.1709 90.7458 33.0127C88.8709 33.4462 86.9165 33.3959 85.0664 32.8664C83.7302 32.491 82.5036 31.8004 81.4896 30.8526C81.3447 30.7153 81.2323 30.523 80.9416 30.4464ZM92.7322 20.298C92.7117 19.6593 92.6281 19.0244 92.4128 18.4189C91.5927 16.1017 90.0387 14.6058 87.5516 14.2724C85.2152 13.9588 83.2435 14.6991 81.8607 16.6503C80.4639 18.6214 80.2218 20.7872 81.222 22.9984C82.1954 25.1553 83.9187 26.3478 86.2972 26.5056C90.1039 26.7591 92.7405 23.7578 92.7322 20.298Z" fill="#282828"/>
<path d="M59.6199 7.47852C62.7496 7.50215 65.4321 8.18556 67.7698 9.93881C70.4645 11.9616 72.09 14.6774 72.6438 17.9744C73.4549 22.8049 72.0562 26.9412 68.3964 30.2286C66.4541 31.9742 64.0915 32.8275 61.506 33.1028C59.2923 33.3404 57.1181 33.1667 55.0295 32.3919C50.929 30.8737 48.341 27.905 47.2782 23.7247C45.9867 18.6437 47.2922 14.2022 51.1232 10.5948C53.1115 8.72272 55.5782 7.82917 58.2767 7.55835C58.8075 7.5079 59.3376 7.49576 59.6199 7.47852ZM65.6238 20.4002C65.6267 19.869 65.571 19.339 65.4577 18.82C64.8139 16.1081 62.5803 14.466 60.3321 14.2712C57.9689 14.0674 55.6453 15.4049 54.6246 17.6525C54.0153 18.9938 53.9086 20.3989 54.2209 21.8271C54.9765 25.2927 58.5641 27.2899 61.8215 26.0674C64.1177 25.2071 65.595 23.0048 65.6263 20.4008L65.6238 20.4002Z" fill="#282828"/>
<path d="M38.6306 16.083C38.6306 10.9547 38.6306 5.82605 38.6306 0.69724C38.6306 -0.0692079 38.5304 0.00871505 39.3006 0.00743764C41.2806 0.0040312 43.2606 0.0040312 45.2406 0.00743764C45.9732 0.00743764 45.8889 -0.0372717 45.8889 0.660196C45.8889 8.55546 45.8889 16.4505 45.8889 24.3454C45.8889 26.7929 45.8889 29.2402 45.8889 31.6873C45.8889 32.2462 45.8851 32.2525 45.3434 32.2532C43.2996 32.2532 41.2557 32.2532 39.2119 32.2532C38.5163 32.2532 38.6294 32.2161 38.6294 31.6598C38.6294 26.4684 38.6298 21.2762 38.6306 16.083Z" fill="#282828"/>
<path d="M29.4315 20.1976V8.77368C29.4315 8.62422 29.4372 8.4754 29.4315 8.32659C29.4251 8.13881 29.5113 8.06152 29.6972 8.06152C31.9322 8.06152 34.1677 8.06152 36.4036 8.06152C36.6259 8.06152 36.7102 8.15605 36.6955 8.36938C36.6865 8.49712 36.6955 8.62486 36.6955 8.7526C36.6955 16.3473 36.6955 23.9421 36.6955 31.5372C36.6955 32.296 36.8373 32.2532 35.9833 32.2538C34.0033 32.2538 32.0233 32.2538 30.0433 32.2538C29.3114 32.2538 29.4372 32.2346 29.4366 31.6221C29.4302 27.8142 29.4285 24.006 29.4315 20.1976Z" fill="#7EBF28"/>
<path d="M33.138 0.00591028C34.1804 0.00591028 35.2234 0.0154911 36.2677 0.000162156C36.5998 -0.0049475 36.7065 0.11002 36.7033 0.441509C36.6893 1.99293 36.6918 3.54562 36.7033 5.09768C36.7033 5.39021 36.626 5.51412 36.3099 5.51284C34.1383 5.50262 31.9682 5.50262 29.7995 5.51284C29.5198 5.51284 29.4304 5.40809 29.4316 5.13856C29.4393 3.56478 29.4457 1.99165 29.4278 0.418515C29.424 0.0557298 29.5843 0.000161728 29.887 0.00271655C30.9677 0.0116584 32.0529 0.00591028 33.138 0.00591028Z" fill="#7EBF28"/>
</g>
<defs>
<clipPath id="clip0_317_1189">
<rect width="100" height="40" fill="white"/>
</clipPath>
</defs>
</svg>
