<svg width="358" height="218" viewBox="0 0 358 218" fill="none" xmlns="http://www.w3.org/2000/svg">
<path opacity="0.54" fill-rule="evenodd" clip-rule="evenodd" d="M0 179C0 190.376 9.70638 198.944 21.0826 198.944H27.9834C38.5194 198.944 46.5103 189.536 46.5103 179C46.5103 173.015 46.9071 167.122 47.676 161.347C49.3855 148.507 42.7086 135.3 30.3209 131.513C18.1508 127.793 5.09205 134.556 2.83764 147.081C0.973282 157.438 0 168.105 0 179ZM20.5038 95.7359C14.2551 107.606 21.3111 121.562 34.1396 125.484C45.9508 129.094 58.3566 122.786 64.5993 112.129C75.2395 93.9657 90.0818 78.5622 107.792 67.2533C118.725 60.2719 124.508 46.6192 119.378 34.7047C114.354 23.0355 100.782 17.4472 89.7729 23.7895C60.4215 40.6994 36.3176 65.6957 20.5038 95.7359ZM179 46.5103C171.325 46.5103 163.802 47.1629 156.484 48.4158C144.338 50.4951 131.554 45.1045 126.681 33.7872C121.363 21.4353 127.483 6.99422 140.621 4.12409C152.985 1.42315 165.826 0 179 0C217.545 0 253.244 12.1829 282.457 32.9081C293.57 40.7926 293.421 56.7191 283.411 65.9648C274.478 74.2164 260.832 74.0899 250.606 67.5084C229.958 54.2197 205.379 46.5103 179 46.5103ZM289.479 67.7737C279.768 76.7438 279.744 91.9433 287.361 102.748C302.562 124.311 311.49 150.613 311.49 179C311.49 189.536 319.481 198.944 330.017 198.944H336.917C348.294 198.944 358 190.376 358 179C358 137.696 344.01 99.6588 320.51 69.3694C312.897 59.5562 298.603 59.3463 289.479 67.7737Z" fill="#998245"/>
<path d="M157.003 190.6C161.635 166.342 196.365 166.342 200.996 190.6C203.632 204.403 193.052 217.194 179 217.194C164.948 217.194 154.368 204.403 157.003 190.6Z" fill="#D2C49F"/>
<path fill-rule="evenodd" clip-rule="evenodd" d="M200.969 190.458H157.031L179 75.3936L200.969 190.458Z" fill="#D2C49F"/>
</svg>
