<svg xmlns="http://www.w3.org/2000/svg" fill="none" viewBox="0 0 96 96" id="Bank">
  <path fill="url(#paint0_linear_645_8340)" fill-rule="evenodd" d="M44.321 8.20214C46.6051 6.91634 49.3949 6.91634 51.679 8.20214L84.5653 26.7144C91.1083 30.3975 88.7411 40.2015 81.5 40.728V43C81.5 44.708 80.7215 46.2341 79.5 47.2429V75.5H80.6667C84.9929 75.5 88.5 79.0071 88.5 83.3334C88.5 86.1868 86.1868 88.5 83.3333 88.5H12.6667C9.81319 88.5 7.5 86.1868 7.5 83.3334C7.5 79.0071 11.0071 75.5 15.3333 75.5H15.5V47.2429C14.2785 46.2341 13.5 44.708 13.5 43V40.5915C7.05381 39.2824 5.20302 30.2223 11.4347 26.7144L44.321 8.20214ZM74.5 75.5V48.5H69.5V75.5H74.5ZM64.5 75.5V47.2429C63.2785 46.2341 62.5 44.708 62.5 43V40.75H57.5V43C57.5 44.708 56.7215 46.2341 55.5 47.2429V75.5H64.5ZM50.5 75.5V48.5H45.5V75.5H50.5ZM40.5 75.5V47.2429C39.2785 46.2341 38.5 44.708 38.5 43V40.75H32.5V43C32.5 44.708 31.7215 46.2341 30.5 47.2429V75.5H40.5ZM52.5 43C52.5 43.2762 52.2761 43.5 52 43.5H44C43.7239 43.5 43.5 43.2762 43.5 43V41.5H52.5V43ZM30.5 80.5H40.5H43H53H55.5H64.5H67H77H79.5L80.6667 80.5C82.2315 80.5 83.5 81.7686 83.5 83.3334C83.5 83.4254 83.4254 83.5 83.3333 83.5H12.6667C12.5746 83.5 12.5 83.4254 12.5 83.3334C12.5 81.7686 13.7685 80.5 15.3333 80.5L15.5 80.5H18H28H30.5ZM68 43.5H76C76.2761 43.5 76.5 43.2762 76.5 43V41.5H67.5V43C67.5 43.2762 67.7239 43.5 68 43.5ZM25.5 48.5V75.5H20.5V48.5H25.5ZM19 43.5H27C27.2761 43.5 27.5 43.2762 27.5 43V41.5H18.5V43C18.5 43.2762 18.7239 43.5 19 43.5ZM49.2263 12.5592C48.465 12.1306 47.535 12.1306 46.7737 12.5592L13.8874 31.0715C11.6459 32.3333 12.5415 35.75 15.1137 35.75H80.8863C83.4585 35.75 84.3541 32.3332 82.1126 31.0715L49.2263 12.5592ZM44.5 26C44.5 24.067 46.067 22.5 48 22.5C49.933 22.5 51.5 24.067 51.5 26C51.5 27.933 49.933 29.5 48 29.5C46.067 29.5 44.5 27.933 44.5 26ZM48 17.5C43.3056 17.5 39.5 21.3056 39.5 26C39.5 30.6945 43.3056 34.5 48 34.5C52.6944 34.5 56.5 30.6945 56.5 26C56.5 21.3056 52.6944 17.5 48 17.5Z" clip-rule="evenodd"></path>
  <defs>
    <linearGradient id="paint0_linear_645_8340" x1="48" x2="48" y1="7.238" y2="88.5" gradientUnits="userSpaceOnUse">
      <stop stop-color="#6f6f6f" class="stopColor10c944 svgShape"></stop>
      <stop offset=".717" stop-color="#888888" class="stopColor9ee42c svgShape"></stop>
    </linearGradient>
  </defs>
</svg>
