<svg xmlns="http://www.w3.org/2000/svg" enable-background="new 0 0 55 55" viewBox="0 0 55 55" width="55" height="55"><path fill="#63affa" d="M51.3699989,15.8906002v23.2199993c0,2.1599998-1.7599983,3.9099998-3.9199982,3.9099998H7.5500002    c-2.1600003,0-3.9200001-1.75-3.9200001-3.9099998V15.8906002c0-2.1599998,1.7599998-3.9099998,3.9200001-3.9099998h39.9000015    C49.6100006,11.9806004,51.3699989,13.7306004,51.3699989,15.8906002z"/><path fill="#529ffb" d="M51.3660011,15.8950005v23.2099991c0,2.170002-1.75,3.920002-3.920002,3.920002H7.546    c-1.0799999,0-2.0599999-0.4400024-2.7600002-1.1501007c-0.7099996-0.6999016-1.1499999-1.6800003-1.1499999-2.7699013    c0-2.75,2.2300003-4.9800987,4.9800005-4.9800987h4.3999996c4.9399996,0,9.4100008-2,12.6500006-5.2400017    c1.4598904-1.4598999,2.6700001-3.169899,3.5499992-5.0599995c0.8800011-1.8598995,1.4400005-3.8999004,1.6200008-6.0398998    c0.0499992-0.5100002,0.0699997-1.0300999,0.0699997-1.5499992c0-2.3501005,1.9098911-4.2600002,4.2600002-4.2600002h12.2799988    C49.6160011,11.9750004,51.3660011,13.7349997,51.3660011,15.8950005z"/><rect width="47.733" height="6.046" x="3.634" y="17.781" fill="#626681"/><path fill="#4d5471" d="M51.3660011,17.7849998v6.0398998H29.2159996c0.8800011-1.8598995,1.4400005-3.8999004,1.6200008-6.0398998    H51.3660011z"/><path fill="#63affa" d="M46.8657913,38.1647987c-1.1889992,0-2.1527901-0.9637985-2.1527901-2.152298v-6.9745998    c0-1.1885014,0.9637909-2.152401,2.1527901-2.152401s2.1527977,0.9638996,2.1527977,2.152401v6.9745998    C49.018589,37.2010002,48.0547905,38.1647987,46.8657913,38.1647987z"/><path fill="#fc4a32" d="M17.7399998,34.6006012c0,2.6800003-2.1700001,4.8600006-4.8599997,4.8600006    s-4.8699999-2.1800003-4.8699999-4.8600006c0-2.6900005,2.1799994-4.8700008,4.8699999-4.8700008    S17.7399998,31.9106007,17.7399998,34.6006012z"/><path fill="#f7cc6d" d="M23.7399998,34.6006012c0,2.6800003-2.1700001,4.8600006-4.8600006,4.8600006    s-4.8699989-2.1800003-4.8699989-4.8600006c0-2.6900005,2.1800003-4.8700008,4.8699989-4.8700008    S23.7399998,31.9106007,23.7399998,34.6006012z"/><path fill="#e7e7e7" d="M41.026001,32.7304993h-8.75c-0.8285103,0-1.5000019-0.6716003-1.5000019-1.5l0,0    c0-0.8284988,0.6714916-1.5,1.5000019-1.5h8.75c0.8283882,0,1.5,0.6715012,1.5,1.5l0,0    C42.526001,32.0588989,41.8543892,32.7304993,41.026001,32.7304993z"/><path fill="#82c8fb" d="M17.2536907,16.4179993h-8.749999c-0.8285003,0-1.5-0.6715994-1.5-1.499999l0,0    c0-0.8284998,0.6714997-1.5,1.5-1.5h8.749999c0.8283997,0,1.5,0.6715002,1.5,1.5l0,0    C18.7536907,15.7463999,18.0820904,16.4179993,17.2536907,16.4179993z"/><path fill="#6c728c" d="M24.8161907,22.3050003h-8.75c-0.8284998,0-1.499999-0.6716003-1.499999-1.5l0,0    c0-0.8285007,0.6714993-1.5,1.499999-1.5h8.75c0.8283997,0,1.5,0.6714993,1.5,1.5l0,0    C26.3161907,21.6334,25.6445904,22.3050003,24.8161907,22.3050003z"/><path fill="#e7e7e7" d="M37.8636894,37.0497017h-6.050499c-0.5727997,0-1.0371914-0.4644012-1.0371914-1.0373001l0,0    c0-0.5727997,0.4643917-1.0372009,1.0371914-1.0372009h6.050499c0.5729027,0,1.0373116,0.4644012,1.0373116,1.0372009l0,0    C38.901001,36.5853004,38.4365921,37.0497017,37.8636894,37.0497017z"/></svg>