<svg width="230" height="128" viewBox="0 0 230 128" fill="none" xmlns="http://www.w3.org/2000/svg">
<path d="M7 9C7 7.34315 8.34315 6 10 6V6C11.6569 6 13 7.34315 13 9V9C13 10.6569 11.6569 12 10 12V12C8.34315 12 7 10.6569 7 9V9Z" fill="black"/>
<path d="M17 9C17 7.34315 18.3431 6 20 6V6C21.6569 6 23 7.34315 23 9V9C23 10.6569 21.6569 12 20 12V12C18.3431 12 17 10.6569 17 9V9Z" fill="black"/>
<path d="M27 9C27 7.34315 28.3431 6 30 6V6C31.6569 6 33 7.34315 33 9V9C33 10.6569 31.6569 12 30 12V12C28.3431 12 27 10.6569 27 9V9Z" fill="black"/>
<path d="M202 15V17H0V15H202Z" fill="black"/>
<path d="M221.929 61.9285C222.319 61.5381 222.952 61.5383 223.343 61.9285L229.707 68.2927C230.098 68.6833 230.098 69.3163 229.707 69.7068L223.343 76.0711C222.952 76.4613 222.319 76.4615 221.929 76.0711C221.538 75.6806 221.538 75.0476 221.929 74.657L226.586 69.9998H170V67.9998H226.586L221.929 63.3425C221.538 62.952 221.538 62.3189 221.929 61.9285Z" fill="black"/>
<path d="M196 0C199.314 0 202 2.68629 202 6V63H200V6C200 3.79086 198.209 2 196 2H6C3.79086 2 2 3.79086 2 6V122C2 124.209 3.79086 126 6 126H196C198.209 126 200 124.209 200 122V77H202V122C202 125.21 199.479 127.832 196.309 127.992L196 128H6L5.69141 127.992C2.52111 127.832 0 125.21 0 122V6C0 2.68629 2.68629 5.03325e-08 6 0H196Z" fill="black"/>
</svg>
