<svg xmlns="http://www.w3.org/2000/svg" viewBox="0 0 54 54" width="54" height="54"><path fill="#fff" d="M40.901 5.885v18.089c0 1.183-.96 2.144-2.143 2.144H18.599a2.145 2.145 0 0 1-2.143-2.144V5.885c0-1.183.96-2.133 2.143-2.133h20.159c1.182 0 2.143.95 2.143 2.133"/><path fill="#f99" d="m31.243 10.275-2.25-1.268a.64.64 0 0 0-.63 0l-2.25 1.268a.64.64 0 0 1-.955-.558V3.75h7.04v5.967c0 .49-.528.799-.955.558"/><path fill="#fff" d="m34.199 36.386 11.153-4.795a3.67 3.67 0 0 1 4.704 1.705c.421.825.14 1.834-.647 2.321l-15.31 9.481a8.07 8.07 0 0 1-5.61 1.094l-8.79-1.504a8.8 8.8 0 0 0-6.924 1.757l-4.768-9.343 7.647-5.027a6.22 6.22 0 0 1 4.703-1.098l3.067.524 8.186 1.4a3.113 3.113 0 1 1-1.05 6.137l-6.107-1.044"/><path fill="#9cf" d="M15.624 45.77 10.61 34.932a1.997 1.997 0 0 0-2.76-.92L4.8 35.656a1.997 1.997 0 0 0-.867 2.592L8.91 49.086a1.997 1.997 0 0 0 2.755.929l3.084-1.644a1.997 1.997 0 0 0 .874-2.601"/><circle cx="41.675" cy="20.453" r="7.403" fill="#9cf"/><path fill="#024" d="M18.6 26.867h18.058a8.1 8.1 0 0 0 5.016 1.74c4.496 0 8.154-3.658 8.154-8.154S46.17 12.3 41.674 12.3h-.023V5.886a2.89 2.89 0 0 0-2.893-2.883c-8.862 0-3.67-.002-20.159 0a2.89 2.89 0 0 0-2.893 2.883v18.089a2.897 2.897 0 0 0 2.893 2.893m29.728-6.414c0 3.669-2.985 6.653-6.654 6.653s-6.653-2.984-6.653-6.653 2.985-6.653 6.653-6.653 6.654 2.984 6.654 6.653M25.908 4.502h5.54V9.53l-2.086-1.177a1.4 1.4 0 0 0-1.366 0L25.908 9.53zm-8.702 1.383a1.39 1.39 0 0 1 1.393-1.383h5.81v5.215a1.39 1.39 0 0 0 2.073 1.212L28.68 9.69l2.196 1.239a1.39 1.39 0 0 0 2.074-1.212V4.502h5.809c.768 0 1.393.62 1.393 1.383v6.563c-3.77.716-6.63 4.03-6.63 8.005a8.1 8.1 0 0 0 1.663 4.914H18.599a1.395 1.395 0 0 1-1.393-1.393zM50.724 32.955a4.436 4.436 0 0 0-5.668-2.053l-10.17 4.371a3.865 3.865 0 0 0-3.15-3.11l-11.252-1.926a6.98 6.98 0 0 0-5.242 1.211l-4.194 2.757a2.734 2.734 0 0 0-3.553-.853l-3.05 1.643a2.754 2.754 0 0 0-1.193 3.566L8.23 49.4a2.75 2.75 0 0 0 3.789 1.278l3.084-1.644a2.746 2.746 0 0 0 1.232-3.49c2.666-.646 3.95.18 12.028 1.388a8.8 8.8 0 0 0 6.13-1.195l15.31-9.481a2.54 2.54 0 0 0 .92-3.3M14.398 47.709l-3.085 1.643a1.245 1.245 0 0 1-1.72-.58L4.615 37.935a1.25 1.25 0 0 1 .542-1.62l3.05-1.643a1.247 1.247 0 0 1 1.724.574l5.012 10.838a1.25 1.25 0 0 1-.545 1.625m34.616-12.73-15.31 9.482a7.33 7.33 0 0 1-5.088.991C20.572 44.29 19 43.247 15.71 44.172l-3.985-8.617 4.369-2.873a5.5 5.5 0 0 1 4.136-.966l11.252 1.925a2.36 2.36 0 0 1 1.931 2.727 2.36 2.36 0 0 1-2.728 1.932l-6.106-1.045c-.995-.152-1.22 1.312-.253 1.478l6.106 1.045a3.86 3.86 0 0 0 4.394-2.846l10.82-4.65a2.927 2.927 0 0 1 3.741 1.357 1.03 1.03 0 0 1-.374 1.34"/><path fill="#024" d="m11.118 46.155-.341.19a.75.75 0 0 0 .73 1.311l.342-.19a.75.75 0 0 0-.73-1.31M41.676 22.774c-.547 0-1.01-.36-1.01-.787a.75.75 0 0 0-1.5 0c0 1.02.743 1.878 1.758 2.17v.341a.75.75 0 0 0 1.5 0v-.34c1.016-.292 1.76-1.15 1.76-2.17 0-1.26-1.125-2.285-2.511-2.285-.556 0-1.007-.351-1.007-.783 0-.42.447-.772.98-.784.01 0 .019.006.028.006s.017-.005.026-.006c.536.013.984.365.984.784a.75.75 0 0 0 1.5 0c0-1.022-.743-1.879-1.76-2.172v-.339a.75.75 0 0 0-1.5 0v.338c-1.015.293-1.758 1.15-1.758 2.173 0 1.259 1.124 2.283 2.51 2.283.556 0 1.008.352 1.008.784 0 .427-.462.787-1.008.787"/></svg>